<?xml version="1.0" encoding="UTF-8"?>
<svg xmlns="http://www.w3.org/2000/svg" xmlns:xlink="http://www.w3.org/1999/xlink" stroke-dasharray="none" shape-rendering="auto" font-family="'Dialog'" width="844" text-rendering="auto" fill-opacity="1" contentScriptType="text/ecmascript" color-interpolation="auto" color-rendering="auto" preserveAspectRatio="xMidYMid meet" font-size="12" viewBox="0 0 844 1115" fill="black" stroke="black" image-rendering="auto" stroke-miterlimit="10" zoomAndPan="magnify" version="1.0" stroke-linecap="square" stroke-linejoin="miter" contentStyleType="text/css" font-style="normal" height="1115" stroke-width="1" stroke-dashoffset="0" font-weight="normal" stroke-opacity="1">
  <!--Generated by the Batik Graphics2D SVG Generator-->
  <defs id="genericDefs" />
  <g>
    <defs id="defs1">
      <clipPath clipPathUnits="userSpaceOnUse" id="clipPath1">
        <path d="M28 9 L100 9 L100 41 L28 41 L28 9 Z" />
      </clipPath>
      <clipPath clipPathUnits="userSpaceOnUse" id="clipPath2">
        <path d="M28 9 L103 9 L103 41 L28 41 L28 9 Z" />
      </clipPath>
      <clipPath clipPathUnits="userSpaceOnUse" id="clipPath3">
        <path d="M58 39 L70 39 L70 1106 L58 1106 L58 39 Z" />
      </clipPath>
      <clipPath clipPathUnits="userSpaceOnUse" id="clipPath4">
        <path d="M187 9 L305 9 L305 61 L187 61 L187 9 Z" />
      </clipPath>
      <clipPath clipPathUnits="userSpaceOnUse" id="clipPath5">
        <path d="M187 9 L307 9 L307 61 L187 61 L187 9 Z" />
      </clipPath>
      <clipPath clipPathUnits="userSpaceOnUse" id="clipPath6">
        <path d="M240 59 L252 59 L252 1106 L240 1106 L240 59 Z" />
      </clipPath>
      <clipPath clipPathUnits="userSpaceOnUse" id="clipPath7">
        <path d="M235 89 L257 89 L257 131 L235 131 L235 89 Z" />
      </clipPath>
      <clipPath clipPathUnits="userSpaceOnUse" id="clipPath8">
        <path d="M256 89 L293 89 L293 106 L256 106 L256 89 Z" />
      </clipPath>
      <clipPath clipPathUnits="userSpaceOnUse" id="clipPath9">
        <path d="M313 9 L414 9 L414 61 L313 61 L313 9 Z" />
      </clipPath>
      <clipPath clipPathUnits="userSpaceOnUse" id="clipPath10">
        <path d="M313 9 L416 9 L416 61 L313 61 L313 9 Z" />
      </clipPath>
      <clipPath clipPathUnits="userSpaceOnUse" id="clipPath11">
        <path d="M357 59 L369 59 L369 1106 L357 1106 L357 59 Z" />
      </clipPath>
      <clipPath clipPathUnits="userSpaceOnUse" id="clipPath12">
        <path d="M352 149 L374 149 L374 191 L352 191 L352 149 Z" />
      </clipPath>
      <clipPath clipPathUnits="userSpaceOnUse" id="clipPath13">
        <path d="M373 149 L410 149 L410 166 L373 166 L373 149 Z" />
      </clipPath>
      <clipPath clipPathUnits="userSpaceOnUse" id="clipPath14">
        <path d="M352 879 L374 879 L374 921 L352 921 L352 879 Z" />
      </clipPath>
      <clipPath clipPathUnits="userSpaceOnUse" id="clipPath15">
        <path d="M373 879 L410 879 L410 896 L373 896 L373 879 Z" />
      </clipPath>
      <clipPath clipPathUnits="userSpaceOnUse" id="clipPath16">
        <path d="M352 664 L374 664 L374 706 L352 706 L352 664 Z" />
      </clipPath>
      <clipPath clipPathUnits="userSpaceOnUse" id="clipPath17">
        <path d="M373 664 L410 664 L410 681 L373 681 L373 664 Z" />
      </clipPath>
      <clipPath clipPathUnits="userSpaceOnUse" id="clipPath18">
        <path d="M352 924 L374 924 L374 966 L352 966 L352 924 Z" />
      </clipPath>
      <clipPath clipPathUnits="userSpaceOnUse" id="clipPath19">
        <path d="M373 924 L410 924 L410 941 L373 941 L373 924 Z" />
      </clipPath>
      <clipPath clipPathUnits="userSpaceOnUse" id="clipPath20">
        <path d="M422 9 L553 9 L553 61 L422 61 L422 9 Z" />
      </clipPath>
      <clipPath clipPathUnits="userSpaceOnUse" id="clipPath21">
        <path d="M422 9 L555 9 L555 61 L422 61 L422 9 Z" />
      </clipPath>
      <clipPath clipPathUnits="userSpaceOnUse" id="clipPath22">
        <path d="M481 59 L493 59 L493 1106 L481 1106 L481 59 Z" />
      </clipPath>
      <clipPath clipPathUnits="userSpaceOnUse" id="clipPath23">
        <path d="M476 209 L498 209 L498 251 L476 251 L476 209 Z" />
      </clipPath>
      <clipPath clipPathUnits="userSpaceOnUse" id="clipPath24">
        <path d="M497 209 L534 209 L534 226 L497 226 L497 209 Z" />
      </clipPath>
      <clipPath clipPathUnits="userSpaceOnUse" id="clipPath25">
        <path d="M476 329 L498 329 L498 371 L476 371 L476 329 Z" />
      </clipPath>
      <clipPath clipPathUnits="userSpaceOnUse" id="clipPath26">
        <path d="M497 329 L534 329 L534 346 L497 346 L497 329 Z" />
      </clipPath>
      <clipPath clipPathUnits="userSpaceOnUse" id="clipPath27">
        <path d="M476 449 L498 449 L498 491 L476 491 L476 449 Z" />
      </clipPath>
      <clipPath clipPathUnits="userSpaceOnUse" id="clipPath28">
        <path d="M497 449 L534 449 L534 466 L497 466 L497 449 Z" />
      </clipPath>
      <clipPath clipPathUnits="userSpaceOnUse" id="clipPath29">
        <path d="M476 258 L498 258 L498 300 L476 300 L476 258 Z" />
      </clipPath>
      <clipPath clipPathUnits="userSpaceOnUse" id="clipPath30">
        <path d="M497 258 L526 258 L526 275 L497 275 L497 258 Z" />
      </clipPath>
      <clipPath clipPathUnits="userSpaceOnUse" id="clipPath31">
        <path d="M476 381 L498 381 L498 423 L476 423 L476 381 Z" />
      </clipPath>
      <clipPath clipPathUnits="userSpaceOnUse" id="clipPath32">
        <path d="M497 381 L526 381 L526 398 L497 398 L497 381 Z" />
      </clipPath>
      <clipPath clipPathUnits="userSpaceOnUse" id="clipPath33">
        <path d="M476 499 L498 499 L498 541 L476 541 L476 499 Z" />
      </clipPath>
      <clipPath clipPathUnits="userSpaceOnUse" id="clipPath34">
        <path d="M497 499 L526 499 L526 516 L497 516 L497 499 Z" />
      </clipPath>
      <clipPath clipPathUnits="userSpaceOnUse" id="clipPath35">
        <path d="M476 569 L498 569 L498 611 L476 611 L476 569 Z" />
      </clipPath>
      <clipPath clipPathUnits="userSpaceOnUse" id="clipPath36">
        <path d="M497 569 L534 569 L534 586 L497 586 L497 569 Z" />
      </clipPath>
      <clipPath clipPathUnits="userSpaceOnUse" id="clipPath37">
        <path d="M476 614 L498 614 L498 656 L476 656 L476 614 Z" />
      </clipPath>
      <clipPath clipPathUnits="userSpaceOnUse" id="clipPath38">
        <path d="M497 614 L526 614 L526 631 L497 631 L497 614 Z" />
      </clipPath>
      <clipPath clipPathUnits="userSpaceOnUse" id="clipPath39">
        <path d="M476 969 L498 969 L498 1011 L476 1011 L476 969 Z" />
      </clipPath>
      <clipPath clipPathUnits="userSpaceOnUse" id="clipPath40">
        <path d="M497 969 L526 969 L526 986 L497 986 L497 969 Z" />
      </clipPath>
      <clipPath clipPathUnits="userSpaceOnUse" id="clipPath41">
        <path d="M561 9 L697 9 L697 61 L561 61 L561 9 Z" />
      </clipPath>
      <clipPath clipPathUnits="userSpaceOnUse" id="clipPath42">
        <path d="M561 9 L700 9 L700 61 L561 61 L561 9 Z" />
      </clipPath>
      <clipPath clipPathUnits="userSpaceOnUse" id="clipPath43">
        <path d="M623 59 L635 59 L635 1106 L623 1106 L623 59 Z" />
      </clipPath>
      <clipPath clipPathUnits="userSpaceOnUse" id="clipPath44">
        <path d="M618 789 L640 789 L640 831 L618 831 L618 789 Z" />
      </clipPath>
      <clipPath clipPathUnits="userSpaceOnUse" id="clipPath45">
        <path d="M639 789 L676 789 L676 806 L639 806 L639 789 Z" />
      </clipPath>
      <clipPath clipPathUnits="userSpaceOnUse" id="clipPath46">
        <path d="M618 834 L640 834 L640 876 L618 876 L618 834 Z" />
      </clipPath>
      <clipPath clipPathUnits="userSpaceOnUse" id="clipPath47">
        <path d="M639 834 L668 834 L668 851 L639 851 L639 834 Z" />
      </clipPath>
      <clipPath clipPathUnits="userSpaceOnUse" id="clipPath48">
        <path d="M705 9 L835 9 L835 61 L705 61 L705 9 Z" />
      </clipPath>
      <clipPath clipPathUnits="userSpaceOnUse" id="clipPath49">
        <path d="M705 9 L837 9 L837 61 L705 61 L705 9 Z" />
      </clipPath>
      <clipPath clipPathUnits="userSpaceOnUse" id="clipPath50">
        <path d="M764 59 L776 59 L776 1106 L764 1106 L764 59 Z" />
      </clipPath>
      <clipPath clipPathUnits="userSpaceOnUse" id="clipPath51">
        <path d="M759 1014 L781 1014 L781 1056 L759 1056 L759 1014 Z" />
      </clipPath>
      <clipPath clipPathUnits="userSpaceOnUse" id="clipPath52">
        <path d="M780 1014 L809 1014 L809 1031 L780 1031 L780 1014 Z" />
      </clipPath>
      <clipPath clipPathUnits="userSpaceOnUse" id="clipPath53">
        <path d="M-1 -1 L845 -1 L845 1116 L-1 1116 L-1 -1 Z" />
      </clipPath>
      <clipPath clipPathUnits="userSpaceOnUse" id="clipPath54">
        <path d="M96 68 L302 68 L302 85 L96 85 L96 68 Z" />
      </clipPath>
      <clipPath clipPathUnits="userSpaceOnUse" id="clipPath55">
        <path d="M62 85 L74 85 L74 96 L62 96 L62 85 Z" />
      </clipPath>
      <clipPath clipPathUnits="userSpaceOnUse" id="clipPath56">
        <path d="M98 129 L299 129 L299 146 L98 146 L98 129 Z" />
      </clipPath>
      <clipPath clipPathUnits="userSpaceOnUse" id="clipPath57">
        <path d="M62 145 L74 145 L74 156 L62 156 L62 145 Z" />
      </clipPath>
      <clipPath clipPathUnits="userSpaceOnUse" id="clipPath58">
        <path d="M91 186 L291 186 L291 203 L91 203 L91 186 Z" />
      </clipPath>
      <clipPath clipPathUnits="userSpaceOnUse" id="clipPath59">
        <path d="M62 205 L74 205 L74 216 L62 216 L62 205 Z" />
      </clipPath>
      <clipPath clipPathUnits="userSpaceOnUse" id="clipPath60">
        <path d="M111 305 L424 305 L424 322 L111 322 L111 305 Z" />
      </clipPath>
      <clipPath clipPathUnits="userSpaceOnUse" id="clipPath61">
        <path d="M62 325 L74 325 L74 336 L62 336 L62 325 Z" />
      </clipPath>
      <clipPath clipPathUnits="userSpaceOnUse" id="clipPath62">
        <path d="M95 425 L414 425 L414 442 L95 442 L95 425 Z" />
      </clipPath>
      <clipPath clipPathUnits="userSpaceOnUse" id="clipPath63">
        <path d="M62 445 L74 445 L74 456 L62 456 L62 445 Z" />
      </clipPath>
      <clipPath clipPathUnits="userSpaceOnUse" id="clipPath64">
        <path d="M65 855 L266 855 L266 872 L65 872 L65 855 Z" />
      </clipPath>
      <clipPath clipPathUnits="userSpaceOnUse" id="clipPath65">
        <path d="M62 875 L74 875 L74 886 L62 886 L62 875 Z" />
      </clipPath>
      <clipPath clipPathUnits="userSpaceOnUse" id="clipPath66">
        <path d="M101 236 L318 236 L318 253 L101 253 L101 236 Z" />
      </clipPath>
      <clipPath clipPathUnits="userSpaceOnUse" id="clipPath67">
        <path d="M468 254 L480 254 L480 265 L468 265 L468 254 Z" />
      </clipPath>
      <clipPath clipPathUnits="userSpaceOnUse" id="clipPath68">
        <path d="M91 360 L260 360 L260 377 L91 377 L91 360 Z" />
      </clipPath>
      <clipPath clipPathUnits="userSpaceOnUse" id="clipPath69">
        <path d="M468 377 L480 377 L480 388 L468 388 L468 377 Z" />
      </clipPath>
      <clipPath clipPathUnits="userSpaceOnUse" id="clipPath70">
        <path d="M150 478 L297 478 L297 495 L150 495 L150 478 Z" />
      </clipPath>
      <clipPath clipPathUnits="userSpaceOnUse" id="clipPath71">
        <path d="M468 495 L480 495 L480 506 L468 506 L468 495 Z" />
      </clipPath>
      <clipPath clipPathUnits="userSpaceOnUse" id="clipPath72">
        <path d="M240 552 L303 552 L303 569 L240 569 L240 552 Z" />
      </clipPath>
      <clipPath clipPathUnits="userSpaceOnUse" id="clipPath73">
        <path d="M62 565 L74 565 L74 576 L62 576 L62 565 Z" />
      </clipPath>
      <clipPath clipPathUnits="userSpaceOnUse" id="clipPath74">
        <path d="M109 647 L310 647 L310 664 L109 664 L109 647 Z" />
      </clipPath>
      <clipPath clipPathUnits="userSpaceOnUse" id="clipPath75">
        <path d="M62 660 L74 660 L74 671 L62 671 L62 660 Z" />
      </clipPath>
      <clipPath clipPathUnits="userSpaceOnUse" id="clipPath76">
        <path d="M23 772 L662 772 L662 789 L23 789 L23 772 Z" />
      </clipPath>
      <clipPath clipPathUnits="userSpaceOnUse" id="clipPath77">
        <path d="M62 785 L74 785 L74 796 L62 796 L62 785 Z" />
      </clipPath>
      <clipPath clipPathUnits="userSpaceOnUse" id="clipPath78">
        <path d="M132 907 L287 907 L287 924 L132 924 L132 907 Z" />
      </clipPath>
      <clipPath clipPathUnits="userSpaceOnUse" id="clipPath79">
        <path d="M62 920 L74 920 L74 931 L62 931 L62 920 Z" />
      </clipPath>
      <clipPath clipPathUnits="userSpaceOnUse" id="clipPath80">
        <path d="M151 597 L391 597 L391 614 L151 614 L151 597 Z" />
      </clipPath>
      <clipPath clipPathUnits="userSpaceOnUse" id="clipPath81">
        <path d="M468 610 L480 610 L480 621 L468 621 L468 610 Z" />
      </clipPath>
      <clipPath clipPathUnits="userSpaceOnUse" id="clipPath82">
        <path d="M66 817 L618 817 L618 834 L66 834 L66 817 Z" />
      </clipPath>
      <clipPath clipPathUnits="userSpaceOnUse" id="clipPath83">
        <path d="M610 830 L622 830 L622 841 L610 841 L610 830 Z" />
      </clipPath>
      <clipPath clipPathUnits="userSpaceOnUse" id="clipPath84">
        <path d="M38 952 L504 952 L504 969 L38 969 L38 952 Z" />
      </clipPath>
      <clipPath clipPathUnits="userSpaceOnUse" id="clipPath85">
        <path d="M468 965 L480 965 L480 976 L468 976 L468 965 Z" />
      </clipPath>
      <clipPath clipPathUnits="userSpaceOnUse" id="clipPath86">
        <path d="M180 997 L646 997 L646 1014 L180 1014 L180 997 Z" />
      </clipPath>
      <clipPath clipPathUnits="userSpaceOnUse" id="clipPath87">
        <path d="M751 1010 L763 1010 L763 1021 L751 1021 L751 1010 Z" />
      </clipPath>
    </defs>
    <g font-size="19" fill="rgb(238,201,142)" font-family="'Lucida Sans'" stroke-linejoin="round" stroke="rgb(238,201,142)" stroke-width="0" stroke-miterlimit="0">
      <rect x="29" y="10" clip-path="url(#clipPath1)" width="70" height="30" stroke="none" />
    </g>
    <g stroke-width="0.1" font-size="19" font-family="'Lucida Sans'" stroke-linecap="butt">
      <rect x="29" y="10" clip-path="url(#clipPath1)" fill="none" width="69" height="29" />
      <text x="44" font-size="11" y="30" clip-path="url(#clipPath2)" font-family="'Lucida Sans Unicode'" stroke="none" xml:space="preserve">System</text>
      <line clip-path="url(#clipPath3)" fill="none" x1="63" x2="63" y1="40" y2="1105" stroke-dasharray="10,10" stroke-width="1.1" />
    </g>
    <g stroke-linecap="butt" font-size="19" fill="rgb(255,245,181)" font-family="'Lucida Sans'" stroke-dasharray="10,10" stroke="rgb(255,245,181)" stroke-width="1.1">
      <rect x="188" y="10" clip-path="url(#clipPath4)" width="116" height="50" stroke="none" />
    </g>
    <g stroke-width="0.1" font-size="19" font-family="'Lucida Sans'" stroke-linecap="butt">
      <rect x="188" y="10" clip-path="url(#clipPath4)" fill="none" width="115" height="49" />
      <text x="216" font-size="11" y="33" clip-path="url(#clipPath5)" font-family="'Lucida Sans Unicode'" stroke="none" xml:space="preserve">theCreator</text>
      <text x="204" font-size="11" y="48" clip-path="url(#clipPath5)" font-family="'Lucida Sans Unicode'" stroke="none" xml:space="preserve">: actMsrCreator</text>
      <line clip-path="url(#clipPath6)" fill="none" x1="245" x2="245" y1="60" y2="1105" stroke-dasharray="10,10" stroke-width="1.1" />
    </g>
    <g stroke-linecap="butt" font-size="19" fill="rgb(39,76,114)" font-family="'Lucida Sans'" stroke-dasharray="10,10" stroke="rgb(39,76,114)" stroke-width="1.1">
      <rect x="236" y="90" clip-path="url(#clipPath7)" width="20" height="40" stroke="none" />
      <rect x="236" y="90" clip-path="url(#clipPath7)" fill="none" width="19" stroke-dasharray="none" height="39" stroke-width="0.1" />
    </g>
    <g stroke-width="0.1" font-size="11" font-family="'Lucida Sans Unicode'" stroke-linecap="butt">
      <text xml:space="preserve" x="257" y="103" clip-path="url(#clipPath8)" stroke="none">out01</text>
    </g>
    <g stroke-linecap="butt" font-size="19" fill="rgb(255,245,181)" font-family="'Lucida Sans'" stroke="rgb(255,245,181)" stroke-width="0.1">
      <rect x="314" y="10" clip-path="url(#clipPath9)" width="99" height="50" stroke="none" />
      <rect x="314" y="10" clip-path="url(#clipPath9)" fill="none" width="98" height="49" stroke="black" />
    </g>
    <g stroke-width="0.1" font-size="11" font-family="'Lucida Sans Unicode'" stroke-linecap="butt">
      <text xml:space="preserve" x="340" y="33" clip-path="url(#clipPath10)" stroke="none">theClock</text>
      <text xml:space="preserve" x="328" y="48" clip-path="url(#clipPath10)" stroke="none">: actActivator</text>
      <line clip-path="url(#clipPath11)" fill="none" x1="362" x2="362" y1="60" y2="1105" stroke-dasharray="10,10" stroke-width="1.1" />
    </g>
    <g stroke-linecap="butt" font-size="19" fill="rgb(39,76,114)" font-family="'Lucida Sans'" stroke-dasharray="10,10" stroke="rgb(39,76,114)" stroke-width="1.1">
      <rect x="353" y="150" clip-path="url(#clipPath12)" width="20" height="40" stroke="none" />
      <rect x="353" y="150" clip-path="url(#clipPath12)" fill="none" width="19" stroke-dasharray="none" height="39" stroke-width="0.1" />
    </g>
    <g stroke-width="0.1" font-size="11" font-family="'Lucida Sans Unicode'" stroke-linecap="butt">
      <text xml:space="preserve" x="374" y="163" clip-path="url(#clipPath13)" stroke="none">out02</text>
    </g>
    <g stroke-linecap="butt" font-size="19" fill="rgb(39,76,114)" font-family="'Lucida Sans'" stroke="rgb(39,76,114)" stroke-width="0.1">
      <rect x="353" y="880" clip-path="url(#clipPath14)" width="20" height="40" stroke="none" />
      <rect x="353" y="880" clip-path="url(#clipPath14)" fill="none" width="19" height="39" />
    </g>
    <g stroke-width="0.1" font-size="11" font-family="'Lucida Sans Unicode'" stroke-linecap="butt">
      <text xml:space="preserve" x="374" y="893" clip-path="url(#clipPath15)" stroke="none">out09</text>
    </g>
    <g fill="rgb(39,76,114)" stroke-width="0.1" font-family="'Segoe UI'" stroke-linecap="butt" stroke="rgb(39,76,114)">
      <rect x="353" y="665" clip-path="url(#clipPath16)" width="20" height="40" stroke="none" />
      <rect x="353" y="665" clip-path="url(#clipPath16)" fill="none" width="19" height="39" />
    </g>
    <g stroke-width="0.1" font-size="11" font-family="'Lucida Sans Unicode'" stroke-linecap="butt">
      <text xml:space="preserve" x="374" y="678" clip-path="url(#clipPath17)" stroke="none">out07</text>
    </g>
    <g fill="rgb(39,76,114)" stroke-width="0.1" font-family="'Segoe UI'" stroke-linecap="butt" stroke="rgb(39,76,114)">
      <rect x="353" y="925" clip-path="url(#clipPath18)" width="20" height="40" stroke="none" />
      <rect x="353" y="925" clip-path="url(#clipPath18)" fill="none" width="19" height="39" />
    </g>
    <g stroke-width="0.1" font-size="11" font-family="'Lucida Sans Unicode'" stroke-linecap="butt">
      <text xml:space="preserve" x="374" y="938" clip-path="url(#clipPath19)" stroke="none">out10</text>
    </g>
    <g stroke-linecap="butt" font-size="19" fill="rgb(255,245,181)" font-family="'Lucida Sans'" stroke="rgb(255,245,181)" stroke-width="0.1">
      <rect x="423" y="10" clip-path="url(#clipPath20)" width="129" height="50" stroke="none" />
      <rect x="423" y="10" clip-path="url(#clipPath20)" fill="none" width="128" height="49" stroke="black" />
    </g>
    <g stroke-width="0.1" font-size="11" font-family="'Lucida Sans Unicode'" stroke-linecap="butt">
      <text xml:space="preserve" x="479" y="33" clip-path="url(#clipPath21)" stroke="none">bill</text>
      <text xml:space="preserve" x="438" y="48" clip-path="url(#clipPath21)" stroke="none">: actAdministrator</text>
      <line clip-path="url(#clipPath22)" fill="none" x1="486" x2="486" y1="60" y2="1105" stroke-dasharray="10,10" stroke-width="1.1" />
    </g>
    <g stroke-linecap="butt" font-size="19" fill="rgb(39,76,114)" font-family="'Lucida Sans'" stroke-dasharray="10,10" stroke="rgb(39,76,114)" stroke-width="1.1">
      <rect x="477" y="210" clip-path="url(#clipPath23)" width="20" height="40" stroke="none" />
      <rect x="477" y="210" clip-path="url(#clipPath23)" fill="none" width="19" stroke-dasharray="none" height="39" stroke-width="0.1" />
    </g>
    <g stroke-width="0.1" font-size="11" font-family="'Lucida Sans Unicode'" stroke-linecap="butt">
      <text xml:space="preserve" x="498" y="223" clip-path="url(#clipPath24)" stroke="none">out03</text>
    </g>
    <g stroke-linecap="butt" font-size="19" fill="rgb(39,76,114)" font-family="'Lucida Sans'" stroke="rgb(39,76,114)" stroke-width="0.1">
      <rect x="477" y="330" clip-path="url(#clipPath25)" width="20" height="40" stroke="none" />
      <rect x="477" y="330" clip-path="url(#clipPath25)" fill="none" width="19" height="39" />
    </g>
    <g stroke-width="0.1" font-size="11" font-family="'Lucida Sans Unicode'" stroke-linecap="butt">
      <text xml:space="preserve" x="498" y="343" clip-path="url(#clipPath26)" stroke="none">out04</text>
    </g>
    <g stroke-linecap="butt" font-size="19" fill="rgb(39,76,114)" font-family="'Lucida Sans'" stroke="rgb(39,76,114)" stroke-width="0.1">
      <rect x="477" y="450" clip-path="url(#clipPath27)" width="20" height="40" stroke="none" />
      <rect x="477" y="450" clip-path="url(#clipPath27)" fill="none" width="19" height="39" />
    </g>
    <g stroke-width="0.1" font-size="11" font-family="'Lucida Sans Unicode'" stroke-linecap="butt">
      <text xml:space="preserve" x="498" y="463" clip-path="url(#clipPath28)" stroke="none">out05</text>
    </g>
    <g stroke-linecap="butt" font-size="19" fill="rgb(194,239,255)" font-family="'Lucida Sans'" stroke="rgb(194,239,255)" stroke-width="0.1">
      <rect x="477" y="259" clip-path="url(#clipPath29)" width="20" height="40" stroke="none" />
      <rect x="477" y="259" clip-path="url(#clipPath29)" fill="none" width="19" height="39" />
    </g>
    <g stroke-width="0.1" font-size="11" font-family="'Lucida Sans Unicode'" stroke-linecap="butt">
      <text xml:space="preserve" x="498" y="272" clip-path="url(#clipPath30)" stroke="none">in01</text>
    </g>
    <g stroke-linecap="butt" font-size="19" fill="rgb(194,239,255)" font-family="'Lucida Sans'" stroke="rgb(194,239,255)" stroke-width="0.1">
      <rect x="477" y="382" clip-path="url(#clipPath31)" width="20" height="40" stroke="none" />
      <rect x="477" y="382" clip-path="url(#clipPath31)" fill="none" width="19" height="39" />
    </g>
    <g stroke-width="0.1" font-size="11" font-family="'Lucida Sans Unicode'" stroke-linecap="butt">
      <text xml:space="preserve" x="498" y="395" clip-path="url(#clipPath32)" stroke="none">in02</text>
    </g>
    <g stroke-linecap="butt" font-size="19" fill="rgb(194,239,255)" font-family="'Lucida Sans'" stroke="rgb(194,239,255)" stroke-width="0.1">
      <rect x="477" y="500" clip-path="url(#clipPath33)" width="20" height="40" stroke="none" />
      <rect x="477" y="500" clip-path="url(#clipPath33)" fill="none" width="19" height="39" />
    </g>
    <g stroke-width="0.1" font-size="11" font-family="'Lucida Sans Unicode'" stroke-linecap="butt">
      <text xml:space="preserve" x="498" y="513" clip-path="url(#clipPath34)" stroke="none">in03</text>
    </g>
    <g fill="rgb(39,76,114)" stroke-width="0.1" font-family="'Segoe UI'" stroke-linecap="butt" stroke="rgb(39,76,114)">
      <rect x="477" y="570" clip-path="url(#clipPath35)" width="20" height="40" stroke="none" />
      <rect x="477" y="570" clip-path="url(#clipPath35)" fill="none" width="19" height="39" />
    </g>
    <g stroke-width="0.1" font-size="11" font-family="'Lucida Sans Unicode'" stroke-linecap="butt">
      <text xml:space="preserve" x="498" y="583" clip-path="url(#clipPath36)" stroke="none">out06</text>
    </g>
    <g fill="rgb(194,239,255)" stroke-width="0.1" font-family="'Segoe UI'" stroke-linecap="butt" stroke="rgb(194,239,255)">
      <rect x="477" y="615" clip-path="url(#clipPath37)" width="20" height="40" stroke="none" />
      <rect x="477" y="615" clip-path="url(#clipPath37)" fill="none" width="19" height="39" />
    </g>
    <g stroke-width="0.1" font-size="11" font-family="'Lucida Sans Unicode'" stroke-linecap="butt">
      <text xml:space="preserve" x="498" y="628" clip-path="url(#clipPath38)" stroke="none">in04</text>
    </g>
    <g fill="rgb(194,239,255)" stroke-width="0.1" font-family="'Segoe UI'" stroke-linecap="butt" stroke="rgb(194,239,255)">
      <rect x="477" y="970" clip-path="url(#clipPath39)" width="20" height="40" stroke="none" />
      <rect x="477" y="970" clip-path="url(#clipPath39)" fill="none" width="19" height="39" />
    </g>
    <g stroke-width="0.1" font-size="11" font-family="'Lucida Sans Unicode'" stroke-linecap="butt">
      <text xml:space="preserve" x="498" y="983" clip-path="url(#clipPath40)" stroke="none">in06</text>
    </g>
    <g stroke-linecap="butt" font-size="19" fill="rgb(255,245,181)" font-family="'Lucida Sans'" stroke="rgb(255,245,181)" stroke-width="0.1">
      <rect x="562" y="10" clip-path="url(#clipPath41)" width="134" height="50" stroke="none" />
      <rect x="562" y="10" clip-path="url(#clipPath41)" fill="none" width="133" height="49" stroke="black" />
    </g>
    <g stroke-width="0.1" font-size="11" font-family="'Lucida Sans Unicode'" stroke-linecap="butt">
      <text xml:space="preserve" x="613" y="33" clip-path="url(#clipPath42)" stroke="none">tango</text>
      <text xml:space="preserve" x="579" y="48" clip-path="url(#clipPath42)" stroke="none">: actComCompany</text>
      <line clip-path="url(#clipPath43)" fill="none" x1="628" x2="628" y1="60" y2="1105" stroke-dasharray="10,10" stroke-width="1.1" />
    </g>
    <g stroke-linecap="butt" fill="rgb(39,76,114)" font-family="'Segoe UI'" stroke-dasharray="10,10" stroke="rgb(39,76,114)" stroke-width="1.1">
      <rect x="619" y="790" clip-path="url(#clipPath44)" width="20" height="40" stroke="none" />
      <rect x="619" y="790" clip-path="url(#clipPath44)" fill="none" width="19" stroke-dasharray="none" height="39" stroke-width="0.1" />
    </g>
    <g stroke-width="0.1" font-size="11" font-family="'Lucida Sans Unicode'" stroke-linecap="butt">
      <text xml:space="preserve" x="640" y="803" clip-path="url(#clipPath45)" stroke="none">out08</text>
    </g>
    <g fill="rgb(194,239,255)" stroke-width="0.1" font-family="'Segoe UI'" stroke-linecap="butt" stroke="rgb(194,239,255)">
      <rect x="619" y="835" clip-path="url(#clipPath46)" width="20" height="40" stroke="none" />
      <rect x="619" y="835" clip-path="url(#clipPath46)" fill="none" width="19" height="39" />
    </g>
    <g stroke-width="0.1" font-size="11" font-family="'Lucida Sans Unicode'" stroke-linecap="butt">
      <text xml:space="preserve" x="640" y="848" clip-path="url(#clipPath47)" stroke="none">in05</text>
    </g>
    <g stroke-linecap="butt" font-size="19" fill="rgb(255,245,181)" font-family="'Lucida Sans'" stroke="rgb(255,245,181)" stroke-width="0.1">
      <rect x="706" y="10" clip-path="url(#clipPath48)" width="128" height="50" stroke="none" />
      <rect x="706" y="10" clip-path="url(#clipPath48)" fill="none" width="127" height="49" stroke="black" />
    </g>
    <g stroke-width="0.1" font-size="11" font-family="'Lucida Sans Unicode'" stroke-linecap="butt">
      <text xml:space="preserve" x="756" y="33" clip-path="url(#clipPath49)" stroke="none">steve</text>
      <text xml:space="preserve" x="726" y="48" clip-path="url(#clipPath49)" stroke="none">: actCoordinator</text>
      <line clip-path="url(#clipPath50)" fill="none" x1="769" x2="769" y1="60" y2="1105" stroke-dasharray="10,10" stroke-width="1.1" />
    </g>
    <g stroke-linecap="butt" fill="rgb(194,239,255)" font-family="'Segoe UI'" stroke-dasharray="10,10" stroke="rgb(194,239,255)" stroke-width="1.1">
      <rect x="760" y="1015" clip-path="url(#clipPath51)" width="20" height="40" stroke="none" />
      <rect x="760" y="1015" clip-path="url(#clipPath51)" fill="none" width="19" stroke-dasharray="none" height="39" stroke-width="0.1" />
    </g>
    <g stroke-width="0.1" font-size="11" font-family="'Lucida Sans Unicode'" stroke-linecap="butt">
      <text xml:space="preserve" x="781" y="1028" clip-path="url(#clipPath52)" stroke="none">in07</text>
      <line clip-path="url(#clipPath53)" fill="none" x1="236" x2="64" y1="90" y2="90" stroke="rgb(136,136,136)" stroke-width="2.1" />
      <text x="97" y="82" clip-path="url(#clipPath54)" stroke="none" stroke-width="2.1" xml:space="preserve">oeCreateSystemAndEnvironment("4")</text>
      <line clip-path="url(#clipPath55)" fill="none" x1="71" x2="64" y1="87" y2="90" stroke="rgb(136,136,136)" stroke-width="2.1" />
      <line clip-path="url(#clipPath55)" fill="none" x1="64" x2="71" y1="90" y2="93" stroke="rgb(136,136,136)" stroke-width="2.1" />
      <line clip-path="url(#clipPath53)" fill="none" x1="353" x2="64" y1="150" y2="150" stroke="rgb(136,136,136)" stroke-width="2.1" />
      <text x="99" y="143" clip-path="url(#clipPath56)" stroke="none" stroke-width="2.1" xml:space="preserve">oeSetClock("2017:11:24 - 03:20:00")</text>
      <line clip-path="url(#clipPath57)" fill="none" x1="71" x2="64" y1="147" y2="150" stroke="rgb(136,136,136)" stroke-width="2.1" />
      <line clip-path="url(#clipPath57)" fill="none" x1="64" x2="71" y1="150" y2="153" stroke="rgb(136,136,136)" stroke-width="2.1" />
      <line clip-path="url(#clipPath53)" fill="none" x1="477" x2="64" y1="210" y2="210" stroke="rgb(136,136,136)" stroke-width="2.1" />
      <text x="92" y="200" clip-path="url(#clipPath58)" stroke="none" stroke-width="2.1" xml:space="preserve">oeLogin("icrashadmin","7WXC1359")</text>
      <line clip-path="url(#clipPath59)" fill="none" x1="71" x2="64" y1="207" y2="210" stroke="rgb(136,136,136)" stroke-width="2.1" />
      <line clip-path="url(#clipPath59)" fill="none" x1="64" x2="71" y1="210" y2="213" stroke="rgb(136,136,136)" stroke-width="2.1" />
      <line clip-path="url(#clipPath53)" fill="none" x1="477" x2="64" y1="330" y2="330" stroke="rgb(136,136,136)" stroke-width="2.1" />
      <text x="112" y="319" clip-path="url(#clipPath60)" stroke="none" stroke-width="2.1" xml:space="preserve">oeAddCoordinator("1","steve","pwdMessirExcalibur2017")</text>
      <line clip-path="url(#clipPath61)" fill="none" x1="71" x2="64" y1="327" y2="330" stroke="rgb(136,136,136)" stroke-width="2.1" />
      <line clip-path="url(#clipPath61)" fill="none" x1="64" x2="71" y1="330" y2="333" stroke="rgb(136,136,136)" stroke-width="2.1" />
      <line clip-path="url(#clipPath53)" fill="none" x1="477" x2="64" y1="450" y2="450" stroke="rgb(136,136,136)" stroke-width="2.1" />
      <text x="96" y="439" clip-path="url(#clipPath62)" stroke="none" stroke-width="2.1" xml:space="preserve">oeAddHospital("2","wozniak","pwdMessirExcalibur2017bc")</text>
      <line clip-path="url(#clipPath63)" fill="none" x1="71" x2="64" y1="447" y2="450" stroke="rgb(136,136,136)" stroke-width="2.1" />
      <line clip-path="url(#clipPath63)" fill="none" x1="64" x2="71" y1="450" y2="453" stroke="rgb(136,136,136)" stroke-width="2.1" />
      <line clip-path="url(#clipPath53)" fill="none" x1="353" x2="64" y1="880" y2="880" stroke="rgb(136,136,136)" stroke-width="2.1" />
      <text x="66" y="869" clip-path="url(#clipPath64)" stroke="none" stroke-width="2.1" xml:space="preserve">oeSetClock("2017:11:26 - 10:30:00")</text>
      <line clip-path="url(#clipPath65)" fill="none" x1="71" x2="64" y1="877" y2="880" stroke="rgb(136,136,136)" stroke-width="2.1" />
      <line clip-path="url(#clipPath65)" fill="none" x1="64" x2="71" y1="880" y2="883" stroke="rgb(136,136,136)" stroke-width="2.1" />
    </g>
    <g stroke-linecap="butt" font-size="11" fill="rgb(136,136,136)" font-family="'Lucida Sans Unicode'" stroke-dasharray="5,5" stroke="rgb(136,136,136)" stroke-width="2.1">
      <line clip-path="url(#clipPath53)" fill="none" x1="477" x2="64" y1="259" y2="259" />
      <text x="102" y="250" clip-path="url(#clipPath66)" fill="black" stroke="none" xml:space="preserve">ieMessage(You are logged ! Welcome ...)</text>
      <line clip-path="url(#clipPath67)" fill="none" x1="470" x2="477" y1="262" y2="259" stroke-dasharray="none" />
      <line clip-path="url(#clipPath67)" fill="none" x1="477" x2="470" y1="259" y2="256" stroke-dasharray="none" />
      <line clip-path="url(#clipPath53)" fill="none" x1="477" x2="64" y1="382" y2="382" />
      <text x="92" y="374" clip-path="url(#clipPath68)" fill="black" stroke="none" xml:space="preserve">ieCoordinatorAddedreturned()</text>
      <line clip-path="url(#clipPath69)" fill="none" x1="470" x2="477" y1="385" y2="382" stroke-dasharray="none" />
      <line clip-path="url(#clipPath69)" fill="none" x1="477" x2="470" y1="382" y2="379" stroke-dasharray="none" />
      <line clip-path="url(#clipPath53)" fill="none" x1="477" x2="64" y1="500" y2="500" />
      <text x="151" y="492" clip-path="url(#clipPath70)" fill="black" stroke="none" xml:space="preserve">ieHospitalAddedreturned()</text>
      <line clip-path="url(#clipPath71)" fill="none" x1="470" x2="477" y1="503" y2="500" stroke-dasharray="none" />
      <line clip-path="url(#clipPath71)" fill="none" x1="477" x2="470" y1="500" y2="497" stroke-dasharray="none" />
      <line clip-path="url(#clipPath53)" fill="none" x1="477" x2="64" y1="570" y2="570" stroke-dasharray="none" />
      <text x="241" y="566" clip-path="url(#clipPath72)" fill="black" stroke-dasharray="none" stroke="none" xml:space="preserve">oeLogout()</text>
      <line clip-path="url(#clipPath73)" fill="none" x1="71" x2="64" y1="567" y2="570" stroke-dasharray="none" />
      <line clip-path="url(#clipPath73)" fill="none" x1="64" x2="71" y1="570" y2="573" stroke-dasharray="none" />
      <line clip-path="url(#clipPath53)" fill="none" x1="353" x2="64" y1="665" y2="665" stroke-dasharray="none" />
      <text x="110" y="661" clip-path="url(#clipPath74)" fill="black" stroke-dasharray="none" stroke="none" xml:space="preserve">oeSetClock("2017:11:26 - 10:15:00")</text>
      <line clip-path="url(#clipPath75)" fill="none" x1="71" x2="64" y1="662" y2="665" stroke-dasharray="none" />
      <line clip-path="url(#clipPath75)" fill="none" x1="64" x2="71" y1="665" y2="668" stroke-dasharray="none" />
      <line clip-path="url(#clipPath53)" fill="none" x1="619" x2="64" y1="790" y2="790" stroke-dasharray="none" />
      <text x="24" y="786" clip-path="url(#clipPath76)" fill="black" stroke-dasharray="none" stroke="none" xml:space="preserve">oeAlert("witness","2017:11:26","10:10:16","+3524666445252","49.627675:6.159590","3 cars involved in an accident.")</text>
      <line clip-path="url(#clipPath77)" fill="none" x1="71" x2="64" y1="787" y2="790" stroke-dasharray="none" />
      <line clip-path="url(#clipPath77)" fill="none" x1="64" x2="71" y1="790" y2="793" stroke-dasharray="none" />
      <line clip-path="url(#clipPath53)" fill="none" x1="353" x2="64" y1="925" y2="925" stroke-dasharray="none" />
      <text x="133" y="921" clip-path="url(#clipPath78)" fill="black" stroke-dasharray="none" stroke="none" xml:space="preserve">oeSollicitateCrisisHandling()</text>
      <line clip-path="url(#clipPath79)" fill="none" x1="71" x2="64" y1="922" y2="925" stroke-dasharray="none" />
      <line clip-path="url(#clipPath79)" fill="none" x1="64" x2="71" y1="925" y2="928" stroke-dasharray="none" />
      <line clip-path="url(#clipPath53)" fill="none" x1="477" x2="64" y1="615" y2="615" />
      <text x="152" y="611" clip-path="url(#clipPath80)" fill="black" stroke="none" xml:space="preserve">ieMessage(You are logged out ! Good Bye ...)</text>
      <line clip-path="url(#clipPath81)" fill="none" x1="470" x2="477" y1="618" y2="615" stroke-dasharray="none" />
      <line clip-path="url(#clipPath81)" fill="none" x1="477" x2="470" y1="615" y2="612" stroke-dasharray="none" />
      <line clip-path="url(#clipPath53)" fill="none" x1="619" x2="64" y1="835" y2="835" />
      <text x="67" y="831" clip-path="url(#clipPath82)" fill="black" stroke="none" xml:space="preserve">ieSmsSend(+3524666445252,Your alert has been registered. We will handle it and keep you informed)</text>
      <line clip-path="url(#clipPath83)" fill="none" x1="612" x2="619" y1="838" y2="835" stroke-dasharray="none" />
      <line clip-path="url(#clipPath83)" fill="none" x1="619" x2="612" y1="835" y2="832" stroke-dasharray="none" />
      <line clip-path="url(#clipPath53)" fill="none" x1="477" x2="64" y1="970" y2="970" />
      <text x="39" y="966" clip-path="url(#clipPath84)" fill="black" stroke="none" xml:space="preserve">ieMessage(There are alerts pending since more than the defined delay. Please REACT !)</text>
      <line clip-path="url(#clipPath85)" fill="none" x1="470" x2="477" y1="973" y2="970" stroke-dasharray="none" />
      <line clip-path="url(#clipPath85)" fill="none" x1="477" x2="470" y1="970" y2="967" stroke-dasharray="none" />
      <line clip-path="url(#clipPath53)" fill="none" x1="760" x2="64" y1="1015" y2="1015" />
      <text x="181" y="1011" clip-path="url(#clipPath86)" fill="black" stroke="none" xml:space="preserve">ieMessage(There are alerts pending since more than the defined delay. Please REACT !)</text>
      <line clip-path="url(#clipPath87)" fill="none" x1="753" x2="760" y1="1018" y2="1015" stroke-dasharray="none" />
      <line clip-path="url(#clipPath87)" fill="none" x1="760" x2="753" y1="1015" y2="1012" stroke-dasharray="none" />
    </g>
  </g>
</svg>

