<?xml version="1.0" encoding="UTF-8"?>
<svg xmlns="http://www.w3.org/2000/svg" xmlns:xlink="http://www.w3.org/1999/xlink" stroke-dasharray="none" shape-rendering="auto" font-family="'Dialog'" width="918" text-rendering="auto" fill-opacity="1" contentScriptType="text/ecmascript" color-interpolation="auto" color-rendering="auto" preserveAspectRatio="xMidYMid meet" font-size="12" viewBox="0 0 918 1270" fill="black" stroke="black" image-rendering="auto" stroke-miterlimit="10" zoomAndPan="magnify" version="1.0" stroke-linecap="square" stroke-linejoin="miter" contentStyleType="text/css" font-style="normal" height="1270" stroke-width="1" stroke-dashoffset="0" font-weight="normal" stroke-opacity="1">
  <!--Generated by the Batik Graphics2D SVG Generator-->
  <defs id="genericDefs" />
  <g>
    <defs id="defs1">
      <clipPath clipPathUnits="userSpaceOnUse" id="clipPath1">
        <path d="M62 9 L134 9 L134 41 L62 41 L62 9 Z" />
      </clipPath>
      <clipPath clipPathUnits="userSpaceOnUse" id="clipPath2">
        <path d="M62 9 L139 9 L139 41 L62 41 L62 9 Z" />
      </clipPath>
      <clipPath clipPathUnits="userSpaceOnUse" id="clipPath3">
        <path d="M92 39 L104 39 L104 1261 L92 1261 L92 39 Z" />
      </clipPath>
      <clipPath clipPathUnits="userSpaceOnUse" id="clipPath4">
        <path d="M162 9 L284 9 L284 61 L162 61 L162 9 Z" />
      </clipPath>
      <clipPath clipPathUnits="userSpaceOnUse" id="clipPath5">
        <path d="M162 9 L288 9 L288 61 L162 61 L162 9 Z" />
      </clipPath>
      <clipPath clipPathUnits="userSpaceOnUse" id="clipPath6">
        <path d="M162 9 L286 9 L286 61 L162 61 L162 9 Z" />
      </clipPath>
      <clipPath clipPathUnits="userSpaceOnUse" id="clipPath7">
        <path d="M217 59 L229 59 L229 1261 L217 1261 L217 59 Z" />
      </clipPath>
      <clipPath clipPathUnits="userSpaceOnUse" id="clipPath8">
        <path d="M292 9 L413 9 L413 61 L292 61 L292 9 Z" />
      </clipPath>
      <clipPath clipPathUnits="userSpaceOnUse" id="clipPath9">
        <path d="M292 9 L417 9 L417 61 L292 61 L292 9 Z" />
      </clipPath>
      <clipPath clipPathUnits="userSpaceOnUse" id="clipPath10">
        <path d="M292 9 L416 9 L416 61 L292 61 L292 9 Z" />
      </clipPath>
      <clipPath clipPathUnits="userSpaceOnUse" id="clipPath11">
        <path d="M346 59 L358 59 L358 1261 L346 1261 L346 59 Z" />
      </clipPath>
      <clipPath clipPathUnits="userSpaceOnUse" id="clipPath12">
        <path d="M341 509 L363 509 L363 551 L341 551 L341 509 Z" />
      </clipPath>
      <clipPath clipPathUnits="userSpaceOnUse" id="clipPath13">
        <path d="M362 509 L416 509 L416 533 L362 533 L362 509 Z" />
      </clipPath>
      <clipPath clipPathUnits="userSpaceOnUse" id="clipPath14">
        <path d="M341 809 L363 809 L363 851 L341 851 L341 809 Z" />
      </clipPath>
      <clipPath clipPathUnits="userSpaceOnUse" id="clipPath15">
        <path d="M362 809 L416 809 L416 833 L362 833 L362 809 Z" />
      </clipPath>
      <clipPath clipPathUnits="userSpaceOnUse" id="clipPath16">
        <path d="M421 9 L553 9 L553 61 L421 61 L421 9 Z" />
      </clipPath>
      <clipPath clipPathUnits="userSpaceOnUse" id="clipPath17">
        <path d="M421 9 L555 9 L555 61 L421 61 L421 9 Z" />
      </clipPath>
      <clipPath clipPathUnits="userSpaceOnUse" id="clipPath18">
        <path d="M421 9 L557 9 L557 61 L421 61 L421 9 Z" />
      </clipPath>
      <clipPath clipPathUnits="userSpaceOnUse" id="clipPath19">
        <path d="M481 59 L493 59 L493 1261 L481 1261 L481 59 Z" />
      </clipPath>
      <clipPath clipPathUnits="userSpaceOnUse" id="clipPath20">
        <path d="M561 9 L695 9 L695 61 L561 61 L561 9 Z" />
      </clipPath>
      <clipPath clipPathUnits="userSpaceOnUse" id="clipPath21">
        <path d="M561 9 L699 9 L699 61 L561 61 L561 9 Z" />
      </clipPath>
      <clipPath clipPathUnits="userSpaceOnUse" id="clipPath22">
        <path d="M561 9 L697 9 L697 61 L561 61 L561 9 Z" />
      </clipPath>
      <clipPath clipPathUnits="userSpaceOnUse" id="clipPath23">
        <path d="M561 9 L700 9 L700 61 L561 61 L561 9 Z" />
      </clipPath>
      <clipPath clipPathUnits="userSpaceOnUse" id="clipPath24">
        <path d="M622 59 L634 59 L634 1261 L622 1261 L622 59 Z" />
      </clipPath>
      <clipPath clipPathUnits="userSpaceOnUse" id="clipPath25">
        <path d="M617 689 L639 689 L639 731 L617 731 L617 689 Z" />
      </clipPath>
      <clipPath clipPathUnits="userSpaceOnUse" id="clipPath26">
        <path d="M638 689 L692 689 L692 713 L638 713 L638 689 Z" />
      </clipPath>
      <clipPath clipPathUnits="userSpaceOnUse" id="clipPath27">
        <path d="M617 389 L639 389 L639 431 L617 431 L617 389 Z" />
      </clipPath>
      <clipPath clipPathUnits="userSpaceOnUse" id="clipPath28">
        <path d="M638 389 L680 389 L680 413 L638 413 L638 389 Z" />
      </clipPath>
      <clipPath clipPathUnits="userSpaceOnUse" id="clipPath29">
        <path d="M617 749 L639 749 L639 791 L617 791 L617 749 Z" />
      </clipPath>
      <clipPath clipPathUnits="userSpaceOnUse" id="clipPath30">
        <path d="M638 749 L680 749 L680 773 L638 773 L638 749 Z" />
      </clipPath>
      <clipPath clipPathUnits="userSpaceOnUse" id="clipPath31">
        <path d="M703 9 L827 9 L827 61 L703 61 L703 9 Z" />
      </clipPath>
      <clipPath clipPathUnits="userSpaceOnUse" id="clipPath32">
        <path d="M703 9 L831 9 L831 61 L703 61 L703 9 Z" />
      </clipPath>
      <clipPath clipPathUnits="userSpaceOnUse" id="clipPath33">
        <path d="M703 9 L829 9 L829 61 L703 61 L703 9 Z" />
      </clipPath>
      <clipPath clipPathUnits="userSpaceOnUse" id="clipPath34">
        <path d="M759 59 L771 59 L771 1261 L759 1261 L759 59 Z" />
      </clipPath>
      <clipPath clipPathUnits="userSpaceOnUse" id="clipPath35">
        <path d="M754 98 L776 98 L776 140 L754 140 L754 98 Z" />
      </clipPath>
      <clipPath clipPathUnits="userSpaceOnUse" id="clipPath36">
        <path d="M775 98 L829 98 L829 122 L775 122 L775 98 Z" />
      </clipPath>
      <clipPath clipPathUnits="userSpaceOnUse" id="clipPath37">
        <path d="M754 209 L776 209 L776 251 L754 251 L754 209 Z" />
      </clipPath>
      <clipPath clipPathUnits="userSpaceOnUse" id="clipPath38">
        <path d="M775 209 L829 209 L829 233 L775 233 L775 209 Z" />
      </clipPath>
      <clipPath clipPathUnits="userSpaceOnUse" id="clipPath39">
        <path d="M754 329 L776 329 L776 371 L754 371 L754 329 Z" />
      </clipPath>
      <clipPath clipPathUnits="userSpaceOnUse" id="clipPath40">
        <path d="M775 329 L829 329 L829 353 L775 353 L775 329 Z" />
      </clipPath>
      <clipPath clipPathUnits="userSpaceOnUse" id="clipPath41">
        <path d="M754 569 L776 569 L776 611 L754 611 L754 569 Z" />
      </clipPath>
      <clipPath clipPathUnits="userSpaceOnUse" id="clipPath42">
        <path d="M775 569 L829 569 L829 593 L775 593 L775 569 Z" />
      </clipPath>
      <clipPath clipPathUnits="userSpaceOnUse" id="clipPath43">
        <path d="M754 869 L776 869 L776 911 L754 911 L754 869 Z" />
      </clipPath>
      <clipPath clipPathUnits="userSpaceOnUse" id="clipPath44">
        <path d="M775 869 L829 869 L829 893 L775 893 L775 869 Z" />
      </clipPath>
      <clipPath clipPathUnits="userSpaceOnUse" id="clipPath45">
        <path d="M754 989 L776 989 L776 1031 L754 1031 L754 989 Z" />
      </clipPath>
      <clipPath clipPathUnits="userSpaceOnUse" id="clipPath46">
        <path d="M775 989 L829 989 L829 1013 L775 1013 L775 989 Z" />
      </clipPath>
      <clipPath clipPathUnits="userSpaceOnUse" id="clipPath47">
        <path d="M754 1109 L776 1109 L776 1151 L754 1151 L754 1109 Z" />
      </clipPath>
      <clipPath clipPathUnits="userSpaceOnUse" id="clipPath48">
        <path d="M775 1109 L829 1109 L829 1133 L775 1133 L775 1109 Z" />
      </clipPath>
      <clipPath clipPathUnits="userSpaceOnUse" id="clipPath49">
        <path d="M754 149 L776 149 L776 191 L754 191 L754 149 Z" />
      </clipPath>
      <clipPath clipPathUnits="userSpaceOnUse" id="clipPath50">
        <path d="M775 149 L817 149 L817 173 L775 173 L775 149 Z" />
      </clipPath>
      <clipPath clipPathUnits="userSpaceOnUse" id="clipPath51">
        <path d="M754 262 L776 262 L776 304 L754 304 L754 262 Z" />
      </clipPath>
      <clipPath clipPathUnits="userSpaceOnUse" id="clipPath52">
        <path d="M775 262 L817 262 L817 286 L775 286 L775 262 Z" />
      </clipPath>
      <clipPath clipPathUnits="userSpaceOnUse" id="clipPath53">
        <path d="M754 449 L776 449 L776 491 L754 491 L754 449 Z" />
      </clipPath>
      <clipPath clipPathUnits="userSpaceOnUse" id="clipPath54">
        <path d="M775 449 L817 449 L817 473 L775 473 L775 449 Z" />
      </clipPath>
      <clipPath clipPathUnits="userSpaceOnUse" id="clipPath55">
        <path d="M754 629 L776 629 L776 671 L754 671 L754 629 Z" />
      </clipPath>
      <clipPath clipPathUnits="userSpaceOnUse" id="clipPath56">
        <path d="M775 629 L817 629 L817 653 L775 653 L775 629 Z" />
      </clipPath>
      <clipPath clipPathUnits="userSpaceOnUse" id="clipPath57">
        <path d="M754 929 L776 929 L776 971 L754 971 L754 929 Z" />
      </clipPath>
      <clipPath clipPathUnits="userSpaceOnUse" id="clipPath58">
        <path d="M775 929 L817 929 L817 953 L775 953 L775 929 Z" />
      </clipPath>
      <clipPath clipPathUnits="userSpaceOnUse" id="clipPath59">
        <path d="M754 1049 L776 1049 L776 1091 L754 1091 L754 1049 Z" />
      </clipPath>
      <clipPath clipPathUnits="userSpaceOnUse" id="clipPath60">
        <path d="M775 1049 L817 1049 L817 1073 L775 1073 L775 1049 Z" />
      </clipPath>
      <clipPath clipPathUnits="userSpaceOnUse" id="clipPath61">
        <path d="M754 1169 L776 1169 L776 1211 L754 1211 L754 1169 Z" />
      </clipPath>
      <clipPath clipPathUnits="userSpaceOnUse" id="clipPath62">
        <path d="M775 1169 L817 1169 L817 1193 L775 1193 L775 1169 Z" />
      </clipPath>
      <clipPath clipPathUnits="userSpaceOnUse" id="clipPath63">
        <path d="M-1 -1 L919 -1 L919 1271 L-1 1271 L-1 -1 Z" />
      </clipPath>
      <clipPath clipPathUnits="userSpaceOnUse" id="clipPath64">
        <path d="M62 71 L440 71 L440 95 L62 95 L62 71 Z" />
      </clipPath>
      <clipPath clipPathUnits="userSpaceOnUse" id="clipPath65">
        <path d="M96 93 L108 93 L108 104 L96 104 L96 93 Z" />
      </clipPath>
      <clipPath clipPathUnits="userSpaceOnUse" id="clipPath66">
        <path d="M77 182 L307 182 L307 206 L77 206 L77 182 Z" />
      </clipPath>
      <clipPath clipPathUnits="userSpaceOnUse" id="clipPath67">
        <path d="M96 204 L108 204 L108 215 L96 215 L96 204 Z" />
      </clipPath>
      <clipPath clipPathUnits="userSpaceOnUse" id="clipPath68">
        <path d="M81 301 L288 301 L288 325 L81 325 L81 301 Z" />
      </clipPath>
      <clipPath clipPathUnits="userSpaceOnUse" id="clipPath69">
        <path d="M96 324 L108 324 L108 335 L96 335 L96 324 Z" />
      </clipPath>
      <clipPath clipPathUnits="userSpaceOnUse" id="clipPath70">
        <path d="M76 483 L396 483 L396 507 L76 507 L76 483 Z" />
      </clipPath>
      <clipPath clipPathUnits="userSpaceOnUse" id="clipPath71">
        <path d="M96 504 L108 504 L108 515 L96 515 L96 504 Z" />
      </clipPath>
      <clipPath clipPathUnits="userSpaceOnUse" id="clipPath72">
        <path d="M86 542 L257 542 L257 566 L86 566 L86 542 Z" />
      </clipPath>
      <clipPath clipPathUnits="userSpaceOnUse" id="clipPath73">
        <path d="M96 564 L108 564 L108 575 L96 575 L96 564 Z" />
      </clipPath>
      <clipPath clipPathUnits="userSpaceOnUse" id="clipPath74">
        <path d="M102 635 L607 635 L607 693 L102 693 L102 635 Z" />
      </clipPath>
      <clipPath clipPathUnits="userSpaceOnUse" id="clipPath75">
        <path d="M96 684 L108 684 L108 695 L96 695 L96 684 Z" />
      </clipPath>
      <clipPath clipPathUnits="userSpaceOnUse" id="clipPath76">
        <path d="M77 782 L397 782 L397 806 L77 806 L77 782 Z" />
      </clipPath>
      <clipPath clipPathUnits="userSpaceOnUse" id="clipPath77">
        <path d="M96 804 L108 804 L108 815 L96 815 L96 804 Z" />
      </clipPath>
      <clipPath clipPathUnits="userSpaceOnUse" id="clipPath78">
        <path d="M73 842 L343 842 L343 866 L73 866 L73 842 Z" />
      </clipPath>
      <clipPath clipPathUnits="userSpaceOnUse" id="clipPath79">
        <path d="M96 864 L108 864 L108 875 L96 875 L96 864 Z" />
      </clipPath>
      <clipPath clipPathUnits="userSpaceOnUse" id="clipPath80">
        <path d="M23 967 L833 967 L833 991 L23 991 L23 967 Z" />
      </clipPath>
      <clipPath clipPathUnits="userSpaceOnUse" id="clipPath81">
        <path d="M96 984 L108 984 L108 995 L96 995 L96 984 Z" />
      </clipPath>
      <clipPath clipPathUnits="userSpaceOnUse" id="clipPath82">
        <path d="M84 1082 L247 1082 L247 1106 L84 1106 L84 1082 Z" />
      </clipPath>
      <clipPath clipPathUnits="userSpaceOnUse" id="clipPath83">
        <path d="M96 1104 L108 1104 L108 1115 L96 1115 L96 1104 Z" />
      </clipPath>
      <clipPath clipPathUnits="userSpaceOnUse" id="clipPath84">
        <path d="M62 123 L418 123 L418 147 L62 147 L62 123 Z" />
      </clipPath>
      <clipPath clipPathUnits="userSpaceOnUse" id="clipPath85">
        <path d="M746 144 L758 144 L758 155 L746 155 L746 144 Z" />
      </clipPath>
      <clipPath clipPathUnits="userSpaceOnUse" id="clipPath86">
        <path d="M71 237 L392 237 L392 261 L71 261 L71 237 Z" />
      </clipPath>
      <clipPath clipPathUnits="userSpaceOnUse" id="clipPath87">
        <path d="M746 257 L758 257 L758 268 L746 268 L746 257 Z" />
      </clipPath>
      <clipPath clipPathUnits="userSpaceOnUse" id="clipPath88">
        <path d="M35 363 L786 363 L786 387 L35 387 L35 363 Z" />
      </clipPath>
      <clipPath clipPathUnits="userSpaceOnUse" id="clipPath89">
        <path d="M609 384 L621 384 L621 395 L609 395 L609 384 Z" />
      </clipPath>
      <clipPath clipPathUnits="userSpaceOnUse" id="clipPath90">
        <path d="M53 421 L557 421 L557 445 L53 445 L53 421 Z" />
      </clipPath>
      <clipPath clipPathUnits="userSpaceOnUse" id="clipPath91">
        <path d="M746 444 L758 444 L758 455 L746 455 L746 444 Z" />
      </clipPath>
      <clipPath clipPathUnits="userSpaceOnUse" id="clipPath92">
        <path d="M65 602 L468 602 L468 626 L65 626 L65 602 Z" />
      </clipPath>
      <clipPath clipPathUnits="userSpaceOnUse" id="clipPath93">
        <path d="M746 624 L758 624 L758 635 L746 635 L746 624 Z" />
      </clipPath>
      <clipPath clipPathUnits="userSpaceOnUse" id="clipPath94">
        <path d="M28 725 L899 725 L899 749 L28 749 L28 725 Z" />
      </clipPath>
      <clipPath clipPathUnits="userSpaceOnUse" id="clipPath95">
        <path d="M609 744 L621 744 L621 755 L609 755 L609 744 Z" />
      </clipPath>
      <clipPath clipPathUnits="userSpaceOnUse" id="clipPath96">
        <path d="M59 903 L475 903 L475 927 L59 927 L59 903 Z" />
      </clipPath>
      <clipPath clipPathUnits="userSpaceOnUse" id="clipPath97">
        <path d="M746 924 L758 924 L758 935 L746 935 L746 924 Z" />
      </clipPath>
      <clipPath clipPathUnits="userSpaceOnUse" id="clipPath98">
        <path d="M55 1022 L500 1022 L500 1046 L55 1046 L55 1022 Z" />
      </clipPath>
      <clipPath clipPathUnits="userSpaceOnUse" id="clipPath99">
        <path d="M746 1044 L758 1044 L758 1055 L746 1055 L746 1044 Z" />
      </clipPath>
      <clipPath clipPathUnits="userSpaceOnUse" id="clipPath100">
        <path d="M70 1141 L394 1141 L394 1165 L70 1165 L70 1141 Z" />
      </clipPath>
      <clipPath clipPathUnits="userSpaceOnUse" id="clipPath101">
        <path d="M746 1164 L758 1164 L758 1175 L746 1175 L746 1164 Z" />
      </clipPath>
    </defs>
    <g font-size="19" fill="rgb(238,201,142)" font-family="'Lucida Sans'" stroke-linejoin="round" stroke="rgb(238,201,142)" stroke-width="0" stroke-miterlimit="0">
      <rect x="63" y="10" clip-path="url(#clipPath1)" width="70" height="30" stroke="none" />
    </g>
    <g stroke-width="0.1" font-size="19" font-family="'Lucida Sans'" stroke-linecap="butt">
      <rect x="63" y="10" clip-path="url(#clipPath1)" fill="none" width="69" height="29" />
      <text xml:space="preserve" x="66" y="33" clip-path="url(#clipPath2)" stroke="none">System</text>
      <line clip-path="url(#clipPath3)" fill="none" x1="97" x2="97" y1="40" y2="1260" stroke-dasharray="10,10" stroke-width="1.1" />
    </g>
    <g stroke-linecap="butt" font-size="19" fill="rgb(255,245,181)" font-family="'Lucida Sans'" stroke-dasharray="10,10" stroke="rgb(255,245,181)" stroke-width="1.1">
      <rect x="163" y="10" clip-path="url(#clipPath4)" width="120" height="50" stroke="none" />
    </g>
    <g stroke-width="0.1" font-size="19" font-family="'Lucida Sans'" stroke-linecap="butt">
      <rect x="163" y="10" clip-path="url(#clipPath4)" fill="none" width="119" height="49" />
      <text xml:space="preserve" x="178" y="21" clip-path="url(#clipPath5)" stroke="none">theCreator</text>
      <text xml:space="preserve" x="217" y="43" clip-path="url(#clipPath6)" stroke="none">: </text>
      <text xml:space="preserve" x="163" y="65" clip-path="url(#clipPath5)" stroke="none">actMsrCreator</text>
      <line clip-path="url(#clipPath7)" fill="none" x1="222" x2="222" y1="60" y2="1260" stroke-dasharray="10,10" stroke-width="1.1" />
    </g>
    <g stroke-linecap="butt" font-size="19" fill="rgb(255,245,181)" font-family="'Lucida Sans'" stroke-dasharray="10,10" stroke="rgb(255,245,181)" stroke-width="1.1">
      <rect x="293" y="10" clip-path="url(#clipPath8)" width="119" height="50" stroke="none" />
    </g>
    <g stroke-width="0.1" font-size="19" font-family="'Lucida Sans'" stroke-linecap="butt">
      <rect x="293" y="10" clip-path="url(#clipPath8)" fill="none" width="118" height="49" />
      <text xml:space="preserve" x="315" y="32" clip-path="url(#clipPath9)" stroke="none">theClock</text>
      <text xml:space="preserve" x="298" y="54" clip-path="url(#clipPath10)" stroke="none">: actActivator</text>
      <line clip-path="url(#clipPath11)" fill="none" x1="351" x2="351" y1="60" y2="1260" stroke-dasharray="10,10" stroke-width="1.1" />
    </g>
    <g stroke-linecap="butt" font-size="19" fill="rgb(39,76,114)" font-family="'Lucida Sans'" stroke-dasharray="10,10" stroke="rgb(39,76,114)" stroke-width="1.1">
      <rect x="342" y="510" clip-path="url(#clipPath12)" width="20" height="40" stroke="none" />
      <rect x="342" y="510" clip-path="url(#clipPath12)" fill="none" width="19" stroke-dasharray="none" height="39" stroke-width="0.1" />
    </g>
    <g stroke-width="0.1" font-size="19" font-family="'Lucida Sans'" stroke-linecap="butt">
      <text xml:space="preserve" x="363" y="529" clip-path="url(#clipPath13)" stroke="none">out04</text>
      <rect x="342" y="810" clip-path="url(#clipPath14)" fill="rgb(39,76,114)" width="20" height="40" stroke="none" />
      <rect x="342" y="810" clip-path="url(#clipPath14)" fill="none" width="19" height="39" stroke="rgb(39,76,114)" />
      <text xml:space="preserve" x="363" y="829" clip-path="url(#clipPath15)" stroke="none">out07</text>
      <rect x="422" y="10" clip-path="url(#clipPath16)" fill="rgb(255,245,181)" width="130" height="50" stroke="none" />
      <rect x="422" y="10" clip-path="url(#clipPath16)" fill="none" width="129" height="49" />
      <text xml:space="preserve" x="475" y="21" clip-path="url(#clipPath17)" stroke="none">bill</text>
      <text xml:space="preserve" x="481" y="43" clip-path="url(#clipPath17)" stroke="none">: </text>
      <text xml:space="preserve" x="422" y="65" clip-path="url(#clipPath18)" stroke="none">actAdministra...</text>
      <line clip-path="url(#clipPath19)" fill="none" x1="486" x2="486" y1="60" y2="1260" stroke-dasharray="10,10" stroke-width="1.1" />
    </g>
    <g stroke-linecap="butt" font-size="19" fill="rgb(255,245,181)" font-family="'Lucida Sans'" stroke-dasharray="10,10" stroke="rgb(255,245,181)" stroke-width="1.1">
      <rect x="562" y="10" clip-path="url(#clipPath20)" width="132" height="50" stroke="none" />
    </g>
    <g stroke-width="0.1" font-size="19" font-family="'Lucida Sans'" stroke-linecap="butt">
      <rect x="562" y="10" clip-path="url(#clipPath20)" fill="none" width="131" height="49" />
      <text xml:space="preserve" x="604" y="21" clip-path="url(#clipPath21)" stroke="none">tango</text>
      <text xml:space="preserve" x="623" y="43" clip-path="url(#clipPath22)" stroke="none">: </text>
      <text xml:space="preserve" x="567" y="65" clip-path="url(#clipPath23)" stroke="none">actComCom...</text>
      <line clip-path="url(#clipPath24)" fill="none" x1="627" x2="627" y1="60" y2="1260" stroke-dasharray="10,10" stroke-width="1.1" />
    </g>
    <g stroke-linecap="butt" font-size="19" fill="rgb(39,76,114)" font-family="'Lucida Sans'" stroke-dasharray="10,10" stroke="rgb(39,76,114)" stroke-width="1.1">
      <rect x="618" y="690" clip-path="url(#clipPath25)" width="20" height="40" stroke="none" />
      <rect x="618" y="690" clip-path="url(#clipPath25)" fill="none" width="19" stroke-dasharray="none" height="39" stroke-width="0.1" />
    </g>
    <g stroke-width="0.1" font-size="19" font-family="'Lucida Sans'" stroke-linecap="butt">
      <text xml:space="preserve" x="639" y="709" clip-path="url(#clipPath26)" stroke="none">out06</text>
      <rect x="618" y="390" clip-path="url(#clipPath27)" fill="rgb(194,239,255)" width="20" height="40" stroke="none" />
      <rect x="618" y="390" clip-path="url(#clipPath27)" fill="none" width="19" height="39" stroke="rgb(194,239,255)" />
      <text xml:space="preserve" x="639" y="409" clip-path="url(#clipPath28)" stroke="none">in03</text>
      <rect x="618" y="750" clip-path="url(#clipPath29)" fill="rgb(194,239,255)" width="20" height="40" stroke="none" />
      <rect x="618" y="750" clip-path="url(#clipPath29)" fill="none" width="19" height="39" stroke="rgb(194,239,255)" />
      <text xml:space="preserve" x="639" y="769" clip-path="url(#clipPath30)" stroke="none">in06</text>
      <rect x="704" y="10" clip-path="url(#clipPath31)" fill="rgb(255,245,181)" width="122" height="50" stroke="none" />
      <rect x="704" y="10" clip-path="url(#clipPath31)" fill="none" width="121" height="49" />
      <text xml:space="preserve" x="741" y="21" clip-path="url(#clipPath32)" stroke="none">steve</text>
      <text xml:space="preserve" x="759" y="43" clip-path="url(#clipPath33)" stroke="none">: </text>
      <text xml:space="preserve" x="706" y="65" clip-path="url(#clipPath32)" stroke="none">actCoordina...</text>
      <line clip-path="url(#clipPath34)" fill="none" x1="764" x2="764" y1="60" y2="1260" stroke-dasharray="10,10" stroke-width="1.1" />
    </g>
    <g stroke-linecap="butt" font-size="19" fill="rgb(39,76,114)" font-family="'Lucida Sans'" stroke-dasharray="10,10" stroke="rgb(39,76,114)" stroke-width="1.1">
      <rect x="755" y="99" clip-path="url(#clipPath35)" width="20" height="40" stroke="none" />
      <rect x="755" y="99" clip-path="url(#clipPath35)" fill="none" width="19" stroke-dasharray="none" height="39" stroke-width="0.1" />
    </g>
    <g stroke-width="0.1" font-size="19" font-family="'Lucida Sans'" stroke-linecap="butt">
      <text xml:space="preserve" x="776" y="118" clip-path="url(#clipPath36)" stroke="none">out01</text>
      <rect x="755" y="210" clip-path="url(#clipPath37)" fill="rgb(39,76,114)" width="20" height="40" stroke="none" />
      <rect x="755" y="210" clip-path="url(#clipPath37)" fill="none" width="19" height="39" stroke="rgb(39,76,114)" />
      <text xml:space="preserve" x="776" y="229" clip-path="url(#clipPath38)" stroke="none">out02</text>
      <rect x="755" y="330" clip-path="url(#clipPath39)" fill="rgb(39,76,114)" width="20" height="40" stroke="none" />
      <rect x="755" y="330" clip-path="url(#clipPath39)" fill="none" width="19" height="39" stroke="rgb(39,76,114)" />
      <text xml:space="preserve" x="776" y="349" clip-path="url(#clipPath40)" stroke="none">out03</text>
      <rect x="755" y="570" clip-path="url(#clipPath41)" fill="rgb(39,76,114)" width="20" height="40" stroke="none" />
      <rect x="755" y="570" clip-path="url(#clipPath41)" fill="none" width="19" height="39" stroke="rgb(39,76,114)" />
      <text xml:space="preserve" x="776" y="589" clip-path="url(#clipPath42)" stroke="none">out05</text>
      <rect x="755" y="870" clip-path="url(#clipPath43)" fill="rgb(39,76,114)" width="20" height="40" stroke="none" />
      <rect x="755" y="870" clip-path="url(#clipPath43)" fill="none" width="19" height="39" stroke="rgb(39,76,114)" />
      <text xml:space="preserve" x="776" y="889" clip-path="url(#clipPath44)" stroke="none">out08</text>
      <rect x="755" y="990" clip-path="url(#clipPath45)" fill="rgb(39,76,114)" width="20" height="40" stroke="none" />
      <rect x="755" y="990" clip-path="url(#clipPath45)" fill="none" width="19" height="39" stroke="rgb(39,76,114)" />
      <text xml:space="preserve" x="776" y="1009" clip-path="url(#clipPath46)" stroke="none">out09</text>
      <rect x="755" y="1110" clip-path="url(#clipPath47)" fill="rgb(39,76,114)" width="20" height="40" stroke="none" />
      <rect x="755" y="1110" clip-path="url(#clipPath47)" fill="none" width="19" height="39" stroke="rgb(39,76,114)" />
      <text xml:space="preserve" x="776" y="1129" clip-path="url(#clipPath48)" stroke="none">out10</text>
      <rect x="755" y="150" clip-path="url(#clipPath49)" fill="rgb(194,239,255)" width="20" height="40" stroke="none" />
      <rect x="755" y="150" clip-path="url(#clipPath49)" fill="none" width="19" height="39" stroke="rgb(194,239,255)" />
      <text xml:space="preserve" x="776" y="169" clip-path="url(#clipPath50)" stroke="none">in01</text>
      <rect x="755" y="263" clip-path="url(#clipPath51)" fill="rgb(194,239,255)" width="20" height="40" stroke="none" />
      <rect x="755" y="263" clip-path="url(#clipPath51)" fill="none" width="19" height="39" stroke="rgb(194,239,255)" />
      <text xml:space="preserve" x="776" y="282" clip-path="url(#clipPath52)" stroke="none">in02</text>
      <rect x="755" y="450" clip-path="url(#clipPath53)" fill="rgb(194,239,255)" width="20" height="40" stroke="none" />
      <rect x="755" y="450" clip-path="url(#clipPath53)" fill="none" width="19" height="39" stroke="rgb(194,239,255)" />
      <text xml:space="preserve" x="776" y="469" clip-path="url(#clipPath54)" stroke="none">in04</text>
      <rect x="755" y="630" clip-path="url(#clipPath55)" fill="rgb(194,239,255)" width="20" height="40" stroke="none" />
      <rect x="755" y="630" clip-path="url(#clipPath55)" fill="none" width="19" height="39" stroke="rgb(194,239,255)" />
      <text xml:space="preserve" x="776" y="649" clip-path="url(#clipPath56)" stroke="none">in05</text>
      <rect x="755" y="930" clip-path="url(#clipPath57)" fill="rgb(194,239,255)" width="20" height="40" stroke="none" />
      <rect x="755" y="930" clip-path="url(#clipPath57)" fill="none" width="19" height="39" stroke="rgb(194,239,255)" />
      <text xml:space="preserve" x="776" y="949" clip-path="url(#clipPath58)" stroke="none">in07</text>
      <rect x="755" y="1050" clip-path="url(#clipPath59)" fill="rgb(194,239,255)" width="20" height="40" stroke="none" />
      <rect x="755" y="1050" clip-path="url(#clipPath59)" fill="none" width="19" height="39" stroke="rgb(194,239,255)" />
      <text xml:space="preserve" x="776" y="1069" clip-path="url(#clipPath60)" stroke="none">in08</text>
      <rect x="755" y="1170" clip-path="url(#clipPath61)" fill="rgb(194,239,255)" width="20" height="40" stroke="none" />
      <rect x="755" y="1170" clip-path="url(#clipPath61)" fill="none" width="19" height="39" stroke="rgb(194,239,255)" />
      <text xml:space="preserve" x="776" y="1189" clip-path="url(#clipPath62)" stroke="none">in09</text>
      <line clip-path="url(#clipPath63)" fill="none" x1="755" x2="98" y1="98" y2="98" stroke="rgb(136,136,136)" stroke-width="2.1" />
      <text x="63" y="91" clip-path="url(#clipPath64)" stroke="none" stroke-width="2.1" xml:space="preserve">oeLogin("steve","pwdMessirExcalibur2017")</text>
      <line clip-path="url(#clipPath65)" fill="none" x1="105" x2="98" y1="95" y2="98" stroke="rgb(136,136,136)" stroke-width="2.1" />
      <line clip-path="url(#clipPath65)" fill="none" x1="98" x2="105" y1="98" y2="101" stroke="rgb(136,136,136)" stroke-width="2.1" />
      <line clip-path="url(#clipPath63)" fill="none" x1="755" x2="98" y1="209" y2="209" stroke="rgb(136,136,136)" stroke-width="2.1" />
      <text x="78" y="202" clip-path="url(#clipPath66)" stroke="none" stroke-width="2.1" xml:space="preserve">oeGetCrisisSet("pending")</text>
      <line clip-path="url(#clipPath67)" fill="none" x1="105" x2="98" y1="206" y2="209" stroke="rgb(136,136,136)" stroke-width="2.1" />
      <line clip-path="url(#clipPath67)" fill="none" x1="98" x2="105" y1="209" y2="212" stroke="rgb(136,136,136)" stroke-width="2.1" />
      <line clip-path="url(#clipPath63)" fill="none" x1="755" x2="98" y1="329" y2="329" stroke="rgb(136,136,136)" stroke-width="2.1" />
      <text x="82" y="321" clip-path="url(#clipPath68)" stroke="none" stroke-width="2.1" xml:space="preserve">oeSetCrisisHandler("1")</text>
      <line clip-path="url(#clipPath69)" fill="none" x1="105" x2="98" y1="326" y2="329" stroke="rgb(136,136,136)" stroke-width="2.1" />
      <line clip-path="url(#clipPath69)" fill="none" x1="98" x2="105" y1="329" y2="332" stroke="rgb(136,136,136)" stroke-width="2.1" />
      <line clip-path="url(#clipPath63)" fill="none" x1="342" x2="98" y1="509" y2="509" stroke="rgb(136,136,136)" stroke-width="2.1" />
      <text x="77" y="503" clip-path="url(#clipPath70)" stroke="none" stroke-width="2.1" xml:space="preserve">oeSetClock("2017:11:26 - 10:45:00")</text>
      <line clip-path="url(#clipPath71)" fill="none" x1="105" x2="98" y1="506" y2="509" stroke="rgb(136,136,136)" stroke-width="2.1" />
      <line clip-path="url(#clipPath71)" fill="none" x1="98" x2="105" y1="509" y2="512" stroke="rgb(136,136,136)" stroke-width="2.1" />
      <line clip-path="url(#clipPath63)" fill="none" x1="755" x2="98" y1="569" y2="569" stroke="rgb(136,136,136)" stroke-width="2.1" />
      <text x="87" y="562" clip-path="url(#clipPath72)" stroke="none" stroke-width="2.1" xml:space="preserve">oeValidateAlert("1")</text>
      <line clip-path="url(#clipPath73)" fill="none" x1="105" x2="98" y1="566" y2="569" stroke="rgb(136,136,136)" stroke-width="2.1" />
      <line clip-path="url(#clipPath73)" fill="none" x1="98" x2="105" y1="569" y2="572" stroke="rgb(136,136,136)" stroke-width="2.1" />
      <line clip-path="url(#clipPath63)" fill="none" x1="618" x2="98" y1="689" y2="689" stroke="rgb(136,136,136)" stroke-width="2.1" />
      <text x="168" y="661" clip-path="url(#clipPath74)" stroke="none" stroke-width="2.1" xml:space="preserve">oeAlert("witness","2017:11:26","10:20:00","</text>
      <text x="107" y="683" clip-path="url(#clipPath74)" stroke="none" stroke-width="2.1" xml:space="preserve">+3524666445000","49.627095:6.160251","A car crash j...</text>
      <line clip-path="url(#clipPath75)" fill="none" x1="105" x2="98" y1="686" y2="689" stroke="rgb(136,136,136)" stroke-width="2.1" />
      <line clip-path="url(#clipPath75)" fill="none" x1="98" x2="105" y1="689" y2="692" stroke="rgb(136,136,136)" stroke-width="2.1" />
      <line clip-path="url(#clipPath63)" fill="none" x1="342" x2="98" y1="809" y2="809" stroke="rgb(136,136,136)" stroke-width="2.1" />
      <text x="78" y="802" clip-path="url(#clipPath76)" stroke="none" stroke-width="2.1" xml:space="preserve">oeSetClock("2017:11:26 - 12:45:00")</text>
      <line clip-path="url(#clipPath77)" fill="none" x1="105" x2="98" y1="806" y2="809" stroke="rgb(136,136,136)" stroke-width="2.1" />
      <line clip-path="url(#clipPath77)" fill="none" x1="98" x2="105" y1="809" y2="812" stroke="rgb(136,136,136)" stroke-width="2.1" />
      <line clip-path="url(#clipPath63)" fill="none" x1="755" x2="98" y1="869" y2="869" stroke="rgb(136,136,136)" stroke-width="2.1" />
      <text x="74" y="862" clip-path="url(#clipPath78)" stroke="none" stroke-width="2.1" xml:space="preserve">oeSetCrisisStatus("1","solved")</text>
      <line clip-path="url(#clipPath79)" fill="none" x1="105" x2="98" y1="866" y2="869" stroke="rgb(136,136,136)" stroke-width="2.1" />
      <line clip-path="url(#clipPath79)" fill="none" x1="98" x2="105" y1="869" y2="872" stroke="rgb(136,136,136)" stroke-width="2.1" />
      <line clip-path="url(#clipPath63)" fill="none" x1="755" x2="98" y1="989" y2="989" stroke="rgb(136,136,136)" stroke-width="2.1" />
      <text x="24" y="987" clip-path="url(#clipPath80)" stroke="none" stroke-width="2.1" xml:space="preserve">oeReportOnCrisis("1","3 victims sent to hospital, 2 cars evacuated and 4 rescue unit mobilized")</text>
      <line clip-path="url(#clipPath81)" fill="none" x1="105" x2="98" y1="986" y2="989" stroke="rgb(136,136,136)" stroke-width="2.1" />
      <line clip-path="url(#clipPath81)" fill="none" x1="98" x2="105" y1="989" y2="992" stroke="rgb(136,136,136)" stroke-width="2.1" />
      <line clip-path="url(#clipPath63)" fill="none" x1="755" x2="98" y1="1109" y2="1109" stroke="rgb(136,136,136)" stroke-width="2.1" />
      <text x="85" y="1102" clip-path="url(#clipPath82)" stroke="none" stroke-width="2.1" xml:space="preserve">oeCloseCrisis("1")</text>
      <line clip-path="url(#clipPath83)" fill="none" x1="105" x2="98" y1="1106" y2="1109" stroke="rgb(136,136,136)" stroke-width="2.1" />
      <line clip-path="url(#clipPath83)" fill="none" x1="98" x2="105" y1="1109" y2="1112" stroke="rgb(136,136,136)" stroke-width="2.1" />
    </g>
    <g stroke-linecap="butt" font-size="19" fill="rgb(136,136,136)" font-family="'Lucida Sans'" stroke-dasharray="5,5" stroke="rgb(136,136,136)" stroke-width="2.1">
      <line clip-path="url(#clipPath63)" fill="none" x1="755" x2="98" y1="149" y2="149" />
      <text x="63" y="143" clip-path="url(#clipPath84)" fill="black" stroke="none" xml:space="preserve">ieMessage(You are logged ! Welcome ...)</text>
      <line clip-path="url(#clipPath85)" fill="none" x1="748" x2="755" y1="152" y2="149" stroke-dasharray="none" />
      <line clip-path="url(#clipPath85)" fill="none" x1="755" x2="748" y1="149" y2="146" stroke-dasharray="none" />
      <line clip-path="url(#clipPath63)" fill="none" x1="755" x2="98" y1="262" y2="262" />
      <text x="72" y="257" clip-path="url(#clipPath86)" fill="black" stroke="none" xml:space="preserve">ieSendACrisis(crisis with ID 1 details)</text>
      <line clip-path="url(#clipPath87)" fill="none" x1="748" x2="755" y1="265" y2="262" stroke-dasharray="none" />
      <line clip-path="url(#clipPath87)" fill="none" x1="755" x2="748" y1="262" y2="259" stroke-dasharray="none" />
      <line clip-path="url(#clipPath63)" fill="none" x1="618" x2="98" y1="389" y2="389" />
      <text x="36" y="383" clip-path="url(#clipPath88)" fill="black" stroke="none" xml:space="preserve">ieSmsSend(+3524666445252,The handling of your alert by our services is in progress !)</text>
      <line clip-path="url(#clipPath89)" fill="none" x1="611" x2="618" y1="392" y2="389" stroke-dasharray="none" />
      <line clip-path="url(#clipPath89)" fill="none" x1="618" x2="611" y1="389" y2="386" stroke-dasharray="none" />
      <line clip-path="url(#clipPath63)" fill="none" x1="755" x2="98" y1="449" y2="449" />
      <text x="54" y="441" clip-path="url(#clipPath90)" fill="black" stroke="none" xml:space="preserve">ieMessage(You are now considered as handling the crisis !)</text>
      <line clip-path="url(#clipPath91)" fill="none" x1="748" x2="755" y1="452" y2="449" stroke-dasharray="none" />
      <line clip-path="url(#clipPath91)" fill="none" x1="755" x2="748" y1="449" y2="446" stroke-dasharray="none" />
      <line clip-path="url(#clipPath63)" fill="none" x1="755" x2="98" y1="629" y2="629" />
      <text x="66" y="622" clip-path="url(#clipPath92)" fill="black" stroke="none" xml:space="preserve">ieMessage(The Alert is now declared as valid !)</text>
      <line clip-path="url(#clipPath93)" fill="none" x1="748" x2="755" y1="632" y2="629" stroke-dasharray="none" />
      <line clip-path="url(#clipPath93)" fill="none" x1="755" x2="748" y1="629" y2="626" stroke-dasharray="none" />
      <line clip-path="url(#clipPath63)" fill="none" x1="618" x2="98" y1="749" y2="749" />
      <text x="29" y="745" clip-path="url(#clipPath94)" fill="black" stroke="none" xml:space="preserve">ieSmsSend(+3524666445000,Your alert has been registered. We will handle it and keep you informed)</text>
      <line clip-path="url(#clipPath95)" fill="none" x1="611" x2="618" y1="752" y2="749" stroke-dasharray="none" />
      <line clip-path="url(#clipPath95)" fill="none" x1="618" x2="611" y1="749" y2="746" stroke-dasharray="none" />
      <line clip-path="url(#clipPath63)" fill="none" x1="755" x2="98" y1="929" y2="929" />
      <text x="60" y="923" clip-path="url(#clipPath96)" fill="black" stroke="none" xml:space="preserve">ieMessage(The crisis status has been updated !)</text>
      <line clip-path="url(#clipPath97)" fill="none" x1="748" x2="755" y1="932" y2="929" stroke-dasharray="none" />
      <line clip-path="url(#clipPath97)" fill="none" x1="755" x2="748" y1="929" y2="926" stroke-dasharray="none" />
      <line clip-path="url(#clipPath63)" fill="none" x1="755" x2="98" y1="1049" y2="1049" />
      <text x="56" y="1042" clip-path="url(#clipPath98)" fill="black" stroke="none" xml:space="preserve">ieMessage(The crisis comment has been updated !)</text>
      <line clip-path="url(#clipPath99)" fill="none" x1="748" x2="755" y1="1052" y2="1049" stroke-dasharray="none" />
      <line clip-path="url(#clipPath99)" fill="none" x1="755" x2="748" y1="1049" y2="1046" stroke-dasharray="none" />
      <line clip-path="url(#clipPath63)" fill="none" x1="755" x2="98" y1="1169" y2="1169" />
      <text x="71" y="1161" clip-path="url(#clipPath100)" fill="black" stroke="none" xml:space="preserve">ieMessage(The crisis is now closed !)</text>
      <line clip-path="url(#clipPath101)" fill="none" x1="748" x2="755" y1="1172" y2="1169" stroke-dasharray="none" />
      <line clip-path="url(#clipPath101)" fill="none" x1="755" x2="748" y1="1169" y2="1166" stroke-dasharray="none" />
    </g>
  </g>
</svg>

