<?xml version="1.0" encoding="UTF-8"?>
<svg xmlns="http://www.w3.org/2000/svg" xmlns:xlink="http://www.w3.org/1999/xlink" stroke-dasharray="none" shape-rendering="auto" font-family="'Dialog'" width="913" text-rendering="auto" fill-opacity="1" contentScriptType="text/ecmascript" color-interpolation="auto" color-rendering="auto" preserveAspectRatio="xMidYMid meet" font-size="12" viewBox="0 0 913 1010" fill="black" stroke="black" image-rendering="auto" stroke-miterlimit="10" zoomAndPan="magnify" version="1.0" stroke-linecap="square" stroke-linejoin="miter" contentStyleType="text/css" font-style="normal" height="1010" stroke-width="1" stroke-dashoffset="0" font-weight="normal" stroke-opacity="1">
  <!--Generated by the Batik Graphics2D SVG Generator-->
  <defs id="genericDefs" />
  <g>
    <defs id="defs1">
      <clipPath clipPathUnits="userSpaceOnUse" id="clipPath1">
        <path d="M264 9 L371 9 L371 61 L264 61 L264 9 Z" />
      </clipPath>
      <clipPath clipPathUnits="userSpaceOnUse" id="clipPath2">
        <path d="M264 9 L375 9 L375 61 L264 61 L264 9 Z" />
      </clipPath>
      <clipPath clipPathUnits="userSpaceOnUse" id="clipPath3">
        <path d="M264 9 L373 9 L373 61 L264 61 L264 9 Z" />
      </clipPath>
      <clipPath clipPathUnits="userSpaceOnUse" id="clipPath4">
        <path d="M311 59 L323 59 L323 1001 L311 1001 L311 59 Z" />
      </clipPath>
      <clipPath clipPathUnits="userSpaceOnUse" id="clipPath5">
        <path d="M306 89 L328 89 L328 131 L306 131 L306 89 Z" />
      </clipPath>
      <clipPath clipPathUnits="userSpaceOnUse" id="clipPath6">
        <path d="M327 89 L374 89 L374 113 L327 113 L327 89 Z" />
      </clipPath>
      <clipPath clipPathUnits="userSpaceOnUse" id="clipPath7">
        <path d="M379 9 L478 9 L478 61 L379 61 L379 9 Z" />
      </clipPath>
      <clipPath clipPathUnits="userSpaceOnUse" id="clipPath8">
        <path d="M379 9 L482 9 L482 61 L379 61 L379 9 Z" />
      </clipPath>
      <clipPath clipPathUnits="userSpaceOnUse" id="clipPath9">
        <path d="M379 9 L480 9 L480 61 L379 61 L379 9 Z" />
      </clipPath>
      <clipPath clipPathUnits="userSpaceOnUse" id="clipPath10">
        <path d="M379 9 L481 9 L481 61 L379 61 L379 9 Z" />
      </clipPath>
      <clipPath clipPathUnits="userSpaceOnUse" id="clipPath11">
        <path d="M422 59 L434 59 L434 1001 L422 1001 L422 59 Z" />
      </clipPath>
      <clipPath clipPathUnits="userSpaceOnUse" id="clipPath12">
        <path d="M417 149 L439 149 L439 191 L417 191 L417 149 Z" />
      </clipPath>
      <clipPath clipPathUnits="userSpaceOnUse" id="clipPath13">
        <path d="M438 149 L485 149 L485 173 L438 173 L438 149 Z" />
      </clipPath>
      <clipPath clipPathUnits="userSpaceOnUse" id="clipPath14">
        <path d="M417 555 L439 555 L439 597 L417 597 L417 555 Z" />
      </clipPath>
      <clipPath clipPathUnits="userSpaceOnUse" id="clipPath15">
        <path d="M438 555 L485 555 L485 579 L438 579 L438 555 Z" />
      </clipPath>
      <clipPath clipPathUnits="userSpaceOnUse" id="clipPath16">
        <path d="M417 789 L439 789 L439 831 L417 831 L417 789 Z" />
      </clipPath>
      <clipPath clipPathUnits="userSpaceOnUse" id="clipPath17">
        <path d="M438 789 L485 789 L485 813 L438 813 L438 789 Z" />
      </clipPath>
      <clipPath clipPathUnits="userSpaceOnUse" id="clipPath18">
        <path d="M486 9 L615 9 L615 61 L486 61 L486 9 Z" />
      </clipPath>
      <clipPath clipPathUnits="userSpaceOnUse" id="clipPath19">
        <path d="M486 9 L617 9 L617 61 L486 61 L486 9 Z" />
      </clipPath>
      <clipPath clipPathUnits="userSpaceOnUse" id="clipPath20">
        <path d="M486 9 L618 9 L618 61 L486 61 L486 9 Z" />
      </clipPath>
      <clipPath clipPathUnits="userSpaceOnUse" id="clipPath21">
        <path d="M544 59 L556 59 L556 1001 L544 1001 L544 59 Z" />
      </clipPath>
      <clipPath clipPathUnits="userSpaceOnUse" id="clipPath22">
        <path d="M539 209 L561 209 L561 251 L539 251 L539 209 Z" />
      </clipPath>
      <clipPath clipPathUnits="userSpaceOnUse" id="clipPath23">
        <path d="M560 209 L607 209 L607 233 L560 233 L560 209 Z" />
      </clipPath>
      <clipPath clipPathUnits="userSpaceOnUse" id="clipPath24">
        <path d="M539 329 L561 329 L561 371 L539 371 L539 329 Z" />
      </clipPath>
      <clipPath clipPathUnits="userSpaceOnUse" id="clipPath25">
        <path d="M560 329 L607 329 L607 353 L560 353 L560 329 Z" />
      </clipPath>
      <clipPath clipPathUnits="userSpaceOnUse" id="clipPath26">
        <path d="M539 449 L561 449 L561 491 L539 491 L539 449 Z" />
      </clipPath>
      <clipPath clipPathUnits="userSpaceOnUse" id="clipPath27">
        <path d="M560 449 L607 449 L607 473 L560 473 L560 449 Z" />
      </clipPath>
      <clipPath clipPathUnits="userSpaceOnUse" id="clipPath28">
        <path d="M539 255 L561 255 L561 297 L539 297 L539 255 Z" />
      </clipPath>
      <clipPath clipPathUnits="userSpaceOnUse" id="clipPath29">
        <path d="M560 255 L607 255 L607 279 L560 279 L560 255 Z" />
      </clipPath>
      <clipPath clipPathUnits="userSpaceOnUse" id="clipPath30">
        <path d="M539 374 L561 374 L561 416 L539 416 L539 374 Z" />
      </clipPath>
      <clipPath clipPathUnits="userSpaceOnUse" id="clipPath31">
        <path d="M560 374 L607 374 L607 398 L560 398 L560 374 Z" />
      </clipPath>
      <clipPath clipPathUnits="userSpaceOnUse" id="clipPath32">
        <path d="M539 499 L561 499 L561 541 L539 541 L539 499 Z" />
      </clipPath>
      <clipPath clipPathUnits="userSpaceOnUse" id="clipPath33">
        <path d="M560 499 L607 499 L607 523 L560 523 L560 499 Z" />
      </clipPath>
      <clipPath clipPathUnits="userSpaceOnUse" id="clipPath34">
        <path d="M539 849 L561 849 L561 891 L539 891 L539 849 Z" />
      </clipPath>
      <clipPath clipPathUnits="userSpaceOnUse" id="clipPath35">
        <path d="M560 849 L607 849 L607 873 L560 873 L560 849 Z" />
      </clipPath>
      <clipPath clipPathUnits="userSpaceOnUse" id="clipPath36">
        <path d="M623 9 L756 9 L756 61 L623 61 L623 9 Z" />
      </clipPath>
      <clipPath clipPathUnits="userSpaceOnUse" id="clipPath37">
        <path d="M623 9 L760 9 L760 61 L623 61 L623 9 Z" />
      </clipPath>
      <clipPath clipPathUnits="userSpaceOnUse" id="clipPath38">
        <path d="M623 9 L758 9 L758 61 L623 61 L623 9 Z" />
      </clipPath>
      <clipPath clipPathUnits="userSpaceOnUse" id="clipPath39">
        <path d="M623 9 L761 9 L761 61 L623 61 L623 9 Z" />
      </clipPath>
      <clipPath clipPathUnits="userSpaceOnUse" id="clipPath40">
        <path d="M683 59 L695 59 L695 1001 L683 1001 L683 59 Z" />
      </clipPath>
      <clipPath clipPathUnits="userSpaceOnUse" id="clipPath41">
        <path d="M678 650 L700 650 L700 692 L678 692 L678 650 Z" />
      </clipPath>
      <clipPath clipPathUnits="userSpaceOnUse" id="clipPath42">
        <path d="M699 650 L746 650 L746 674 L699 674 L699 650 Z" />
      </clipPath>
      <clipPath clipPathUnits="userSpaceOnUse" id="clipPath43">
        <path d="M678 729 L700 729 L700 771 L678 771 L678 729 Z" />
      </clipPath>
      <clipPath clipPathUnits="userSpaceOnUse" id="clipPath44">
        <path d="M699 729 L746 729 L746 753 L699 753 L699 729 Z" />
      </clipPath>
      <clipPath clipPathUnits="userSpaceOnUse" id="clipPath45">
        <path d="M764 9 L895 9 L895 61 L764 61 L764 9 Z" />
      </clipPath>
      <clipPath clipPathUnits="userSpaceOnUse" id="clipPath46">
        <path d="M764 9 L899 9 L899 61 L764 61 L764 9 Z" />
      </clipPath>
      <clipPath clipPathUnits="userSpaceOnUse" id="clipPath47">
        <path d="M764 9 L897 9 L897 61 L764 61 L764 9 Z" />
      </clipPath>
      <clipPath clipPathUnits="userSpaceOnUse" id="clipPath48">
        <path d="M823 59 L835 59 L835 1001 L823 1001 L823 59 Z" />
      </clipPath>
      <clipPath clipPathUnits="userSpaceOnUse" id="clipPath49">
        <path d="M818 909 L840 909 L840 951 L818 951 L818 909 Z" />
      </clipPath>
      <clipPath clipPathUnits="userSpaceOnUse" id="clipPath50">
        <path d="M839 909 L886 909 L886 933 L839 933 L839 909 Z" />
      </clipPath>
      <clipPath clipPathUnits="userSpaceOnUse" id="clipPath51">
        <path d="M61 9 L133 9 L133 41 L61 41 L61 9 Z" />
      </clipPath>
      <clipPath clipPathUnits="userSpaceOnUse" id="clipPath52">
        <path d="M61 9 L138 9 L138 41 L61 41 L61 9 Z" />
      </clipPath>
      <clipPath clipPathUnits="userSpaceOnUse" id="clipPath53">
        <path d="M91 39 L103 39 L103 1001 L91 1001 L91 39 Z" />
      </clipPath>
      <clipPath clipPathUnits="userSpaceOnUse" id="clipPath54">
        <path d="M-1 -1 L914 -1 L914 1011 L-1 1011 L-1 -1 Z" />
      </clipPath>
      <clipPath clipPathUnits="userSpaceOnUse" id="clipPath55">
        <path d="M77 63 L388 63 L388 87 L77 87 L77 63 Z" />
      </clipPath>
      <clipPath clipPathUnits="userSpaceOnUse" id="clipPath56">
        <path d="M95 85 L107 85 L107 96 L95 96 L95 85 Z" />
      </clipPath>
      <clipPath clipPathUnits="userSpaceOnUse" id="clipPath57">
        <path d="M79 126 L385 126 L385 150 L79 150 L79 126 Z" />
      </clipPath>
      <clipPath clipPathUnits="userSpaceOnUse" id="clipPath58">
        <path d="M95 145 L107 145 L107 156 L95 156 L95 145 Z" />
      </clipPath>
      <clipPath clipPathUnits="userSpaceOnUse" id="clipPath59">
        <path d="M73 181 L367 181 L367 205 L73 205 L73 181 Z" />
      </clipPath>
      <clipPath clipPathUnits="userSpaceOnUse" id="clipPath60">
        <path d="M95 205 L107 205 L107 216 L95 216 L95 205 Z" />
      </clipPath>
      <clipPath clipPathUnits="userSpaceOnUse" id="clipPath61">
        <path d="M71 302 L524 302 L524 326 L71 326 L71 302 Z" />
      </clipPath>
      <clipPath clipPathUnits="userSpaceOnUse" id="clipPath62">
        <path d="M95 325 L107 325 L107 336 L95 336 L95 325 Z" />
      </clipPath>
      <clipPath clipPathUnits="userSpaceOnUse" id="clipPath63">
        <path d="M99 421 L198 421 L198 445 L99 445 L99 421 Z" />
      </clipPath>
      <clipPath clipPathUnits="userSpaceOnUse" id="clipPath64">
        <path d="M95 445 L107 445 L107 456 L95 456 L95 445 Z" />
      </clipPath>
      <clipPath clipPathUnits="userSpaceOnUse" id="clipPath65">
        <path d="M75 524 L381 524 L381 548 L75 548 L75 524 Z" />
      </clipPath>
      <clipPath clipPathUnits="userSpaceOnUse" id="clipPath66">
        <path d="M95 551 L107 551 L107 562 L95 562 L95 551 Z" />
      </clipPath>
      <clipPath clipPathUnits="userSpaceOnUse" id="clipPath67">
        <path d="M71 594 L538 594 L538 662 L71 662 L71 594 Z" />
      </clipPath>
      <clipPath clipPathUnits="userSpaceOnUse" id="clipPath68">
        <path d="M95 646 L107 646 L107 657 L95 657 L95 646 Z" />
      </clipPath>
      <clipPath clipPathUnits="userSpaceOnUse" id="clipPath69">
        <path d="M87 763 L329 763 L329 787 L87 787 L87 763 Z" />
      </clipPath>
      <clipPath clipPathUnits="userSpaceOnUse" id="clipPath70">
        <path d="M95 785 L107 785 L107 796 L95 796 L95 785 Z" />
      </clipPath>
      <clipPath clipPathUnits="userSpaceOnUse" id="clipPath71">
        <path d="M67 229 L423 229 L423 253 L67 253 L67 229 Z" />
      </clipPath>
      <clipPath clipPathUnits="userSpaceOnUse" id="clipPath72">
        <path d="M531 251 L543 251 L543 262 L531 262 L531 251 Z" />
      </clipPath>
      <clipPath clipPathUnits="userSpaceOnUse" id="clipPath73">
        <path d="M87 347 L276 347 L276 371 L87 371 L87 347 Z" />
      </clipPath>
      <clipPath clipPathUnits="userSpaceOnUse" id="clipPath74">
        <path d="M531 370 L543 370 L543 381 L531 381 L531 370 Z" />
      </clipPath>
      <clipPath clipPathUnits="userSpaceOnUse" id="clipPath75">
        <path d="M68 471 L459 471 L459 495 L68 495 L68 471 Z" />
      </clipPath>
      <clipPath clipPathUnits="userSpaceOnUse" id="clipPath76">
        <path d="M531 495 L543 495 L543 506 L531 506 L531 495 Z" />
      </clipPath>
      <clipPath clipPathUnits="userSpaceOnUse" id="clipPath77">
        <path d="M23 699 L894 699 L894 723 L23 723 L23 699 Z" />
      </clipPath>
      <clipPath clipPathUnits="userSpaceOnUse" id="clipPath78">
        <path d="M670 725 L682 725 L682 736 L670 736 L670 725 Z" />
      </clipPath>
      <clipPath clipPathUnits="userSpaceOnUse" id="clipPath79">
        <path d="M27 825 L783 825 L783 849 L27 849 L27 825 Z" />
      </clipPath>
      <clipPath clipPathUnits="userSpaceOnUse" id="clipPath80">
        <path d="M531 845 L543 845 L543 856 L531 856 L531 845 Z" />
      </clipPath>
      <clipPath clipPathUnits="userSpaceOnUse" id="clipPath81">
        <path d="M26 880 L782 880 L782 904 L26 904 L26 880 Z" />
      </clipPath>
      <clipPath clipPathUnits="userSpaceOnUse" id="clipPath82">
        <path d="M810 905 L822 905 L822 916 L810 916 L810 905 Z" />
      </clipPath>
    </defs>
    <g font-size="19" fill="rgb(255,245,181)" font-family="'Lucida Sans'" stroke-linejoin="round" stroke="rgb(255,245,181)" stroke-width="0" stroke-miterlimit="0">
      <rect x="265" y="10" clip-path="url(#clipPath1)" width="105" height="50" stroke="none" />
    </g>
    <g stroke-width="0.1" font-size="19" font-family="'Lucida Sans'" stroke-linecap="butt">
      <rect x="265" y="10" clip-path="url(#clipPath1)" fill="none" width="104" height="49" />
      <text xml:space="preserve" x="272" y="21" clip-path="url(#clipPath2)" stroke="none">theCreator</text>
      <text xml:space="preserve" x="312" y="43" clip-path="url(#clipPath3)" stroke="none">: </text>
      <text xml:space="preserve" x="266" y="65" clip-path="url(#clipPath2)" stroke="none">actMsrCre...</text>
      <line clip-path="url(#clipPath4)" fill="none" x1="316" x2="316" y1="60" y2="1000" stroke-dasharray="10,10" stroke-width="1.1" />
    </g>
    <g stroke-linecap="butt" font-size="19" fill="rgb(77,137,20)" font-family="'Lucida Sans'" stroke-dasharray="10,10" stroke="rgb(77,137,20)" stroke-width="1.1">
      <rect x="307" y="90" clip-path="url(#clipPath5)" width="20" height="40" stroke="none" />
      <rect x="308" y="91" clip-path="url(#clipPath5)" fill="none" width="18" stroke-dasharray="none" height="38" stroke-width="2.1" />
      <text x="328" y="109" clip-path="url(#clipPath6)" stroke-dasharray="none" stroke="none" stroke-width="2.1" xml:space="preserve">tsi01</text>
    </g>
    <g stroke-linecap="butt" font-size="19" fill="rgb(255,245,181)" font-family="'Lucida Sans'" stroke="rgb(255,245,181)" stroke-width="2.1">
      <rect x="380" y="10" clip-path="url(#clipPath7)" width="97" height="50" stroke="none" />
      <rect x="380" y="10" clip-path="url(#clipPath7)" fill="none" width="96" height="49" stroke="black" stroke-width="0.1" />
      <text x="391" y="21" clip-path="url(#clipPath8)" fill="black" stroke="none" stroke-width="0.1" xml:space="preserve">theClock</text>
      <text x="423" y="43" clip-path="url(#clipPath9)" fill="black" stroke="none" stroke-width="0.1" xml:space="preserve">: </text>
      <text x="380" y="65" clip-path="url(#clipPath10)" fill="black" stroke="none" stroke-width="0.1" xml:space="preserve">actActivat...</text>
    </g>
    <g stroke-width="1.1" font-size="19" stroke-dasharray="10,10" font-family="'Lucida Sans'" stroke-linecap="butt">
      <line clip-path="url(#clipPath11)" fill="none" x1="427" x2="427" y1="60" y2="1000" />
      <rect x="418" y="150" clip-path="url(#clipPath12)" fill="rgb(77,137,20)" width="20" height="40" stroke="none" />
    </g>
    <g stroke-linecap="butt" font-size="19" fill="rgb(77,137,20)" font-family="'Lucida Sans'" stroke="rgb(77,137,20)" stroke-width="2.1">
      <rect x="419" y="151" clip-path="url(#clipPath12)" fill="none" width="18" height="38" />
      <text xml:space="preserve" x="439" y="169" clip-path="url(#clipPath13)" stroke="none">tsi02</text>
      <rect x="418" y="556" clip-path="url(#clipPath14)" width="20" height="40" stroke="none" />
      <rect x="419" y="557" clip-path="url(#clipPath14)" fill="none" width="18" height="38" />
      <text xml:space="preserve" x="439" y="575" clip-path="url(#clipPath15)" stroke="none">tsi06</text>
      <rect x="418" y="790" clip-path="url(#clipPath16)" width="20" height="40" stroke="none" />
      <rect x="419" y="791" clip-path="url(#clipPath16)" fill="none" width="18" height="38" />
      <text xml:space="preserve" x="439" y="809" clip-path="url(#clipPath17)" stroke="none">tsi09</text>
      <rect x="487" y="10" clip-path="url(#clipPath18)" fill="rgb(255,245,181)" width="127" height="50" stroke="none" />
      <rect x="487" y="10" clip-path="url(#clipPath18)" fill="none" width="126" height="49" stroke="black" stroke-width="0.1" />
      <text x="538" y="21" clip-path="url(#clipPath19)" fill="black" stroke="none" stroke-width="0.1" xml:space="preserve">bill</text>
      <text x="545" y="43" clip-path="url(#clipPath19)" fill="black" stroke="none" stroke-width="0.1" xml:space="preserve">: </text>
      <text x="491" y="65" clip-path="url(#clipPath20)" fill="black" stroke="none" stroke-width="0.1" xml:space="preserve">actAdministr...</text>
    </g>
    <g stroke-width="1.1" font-size="19" stroke-dasharray="10,10" font-family="'Lucida Sans'" stroke-linecap="butt">
      <line clip-path="url(#clipPath21)" fill="none" x1="549" x2="549" y1="60" y2="1000" />
      <rect x="540" y="210" clip-path="url(#clipPath22)" fill="rgb(77,137,20)" width="20" height="40" stroke="none" />
    </g>
    <g stroke-linecap="butt" font-size="19" fill="rgb(77,137,20)" font-family="'Lucida Sans'" stroke="rgb(77,137,20)" stroke-width="2.1">
      <rect x="541" y="211" clip-path="url(#clipPath22)" fill="none" width="18" height="38" />
      <text xml:space="preserve" x="561" y="229" clip-path="url(#clipPath23)" stroke="none">tsi03</text>
      <rect x="540" y="330" clip-path="url(#clipPath24)" width="20" height="40" stroke="none" />
      <rect x="541" y="331" clip-path="url(#clipPath24)" fill="none" width="18" height="38" />
      <text xml:space="preserve" x="561" y="349" clip-path="url(#clipPath25)" stroke="none">tsi04</text>
      <rect x="540" y="450" clip-path="url(#clipPath26)" width="20" height="40" stroke="none" />
      <rect x="541" y="451" clip-path="url(#clipPath26)" fill="none" width="18" height="38" />
      <text xml:space="preserve" x="561" y="469" clip-path="url(#clipPath27)" stroke="none">tsi05</text>
      <rect x="540" y="256" clip-path="url(#clipPath28)" fill="rgb(204,242,166)" width="20" height="40" stroke="none" />
      <rect x="540" y="256" clip-path="url(#clipPath28)" fill="none" width="19" height="39" stroke="rgb(209,209,209)" stroke-width="0.1" />
      <text x="561" y="275" clip-path="url(#clipPath29)" stroke="none" stroke-width="0.1" xml:space="preserve">tsi03</text>
      <rect x="540" y="375" clip-path="url(#clipPath30)" fill="rgb(204,242,166)" width="20" height="40" stroke="none" stroke-width="0.1" />
      <rect x="540" y="375" clip-path="url(#clipPath30)" fill="none" width="19" height="39" stroke="rgb(209,209,209)" stroke-width="0.1" />
      <text x="561" y="394" clip-path="url(#clipPath31)" stroke="none" stroke-width="0.1" xml:space="preserve">tsi04</text>
      <rect x="540" y="500" clip-path="url(#clipPath32)" fill="rgb(204,242,166)" width="20" height="40" stroke="none" stroke-width="0.1" />
      <rect x="540" y="500" clip-path="url(#clipPath32)" fill="none" width="19" height="39" stroke="rgb(209,209,209)" stroke-width="0.1" />
      <text x="561" y="519" clip-path="url(#clipPath33)" stroke="none" stroke-width="0.1" xml:space="preserve">tsi05</text>
      <rect x="540" y="850" clip-path="url(#clipPath34)" fill="rgb(204,242,166)" width="20" height="40" stroke="none" stroke-width="0.1" />
      <rect x="540" y="850" clip-path="url(#clipPath34)" fill="none" width="19" height="39" stroke="rgb(209,209,209)" stroke-width="0.1" />
      <text x="561" y="869" clip-path="url(#clipPath35)" stroke="none" stroke-width="0.1" xml:space="preserve">tsi09</text>
      <rect x="624" y="10" clip-path="url(#clipPath36)" fill="rgb(255,245,181)" width="131" height="50" stroke="none" stroke-width="0.1" />
      <rect x="624" y="10" clip-path="url(#clipPath36)" fill="none" width="130" height="49" stroke="black" stroke-width="0.1" />
      <text x="665" y="21" clip-path="url(#clipPath37)" fill="black" stroke="none" stroke-width="0.1" xml:space="preserve">tango</text>
      <text x="684" y="43" clip-path="url(#clipPath38)" fill="black" stroke="none" stroke-width="0.1" xml:space="preserve">: </text>
      <text x="628" y="65" clip-path="url(#clipPath39)" fill="black" stroke="none" stroke-width="0.1" xml:space="preserve">actComCom...</text>
    </g>
    <g stroke-width="1.1" font-size="19" stroke-dasharray="10,10" font-family="'Lucida Sans'" stroke-linecap="butt">
      <line clip-path="url(#clipPath40)" fill="none" x1="688" x2="688" y1="60" y2="1000" />
      <rect x="679" y="651" clip-path="url(#clipPath41)" fill="rgb(77,137,20)" width="20" height="40" stroke="none" />
    </g>
    <g stroke-linecap="butt" font-size="19" fill="rgb(77,137,20)" font-family="'Lucida Sans'" stroke="rgb(77,137,20)" stroke-width="2.1">
      <rect x="680" y="652" clip-path="url(#clipPath41)" fill="none" width="18" height="38" />
      <text xml:space="preserve" x="700" y="670" clip-path="url(#clipPath42)" stroke="none">tsi07</text>
      <rect x="679" y="730" clip-path="url(#clipPath43)" fill="rgb(204,242,166)" width="20" height="40" stroke="none" />
      <rect x="679" y="730" clip-path="url(#clipPath43)" fill="none" width="19" height="39" stroke="rgb(209,209,209)" stroke-width="0.1" />
      <text x="700" y="749" clip-path="url(#clipPath44)" stroke="none" stroke-width="0.1" xml:space="preserve">tsi07</text>
      <rect x="765" y="10" clip-path="url(#clipPath45)" fill="rgb(255,245,181)" width="129" height="50" stroke="none" stroke-width="0.1" />
      <rect x="765" y="10" clip-path="url(#clipPath45)" fill="none" width="128" height="49" stroke="black" stroke-width="0.1" />
      <text x="806" y="21" clip-path="url(#clipPath46)" fill="black" stroke="none" stroke-width="0.1" xml:space="preserve">steve</text>
      <text x="824" y="43" clip-path="url(#clipPath47)" fill="black" stroke="none" stroke-width="0.1" xml:space="preserve">: </text>
      <text x="767" y="65" clip-path="url(#clipPath46)" fill="black" stroke="none" stroke-width="0.1" xml:space="preserve">actCoordinator</text>
    </g>
    <g stroke-width="1.1" font-size="19" stroke-dasharray="10,10" font-family="'Lucida Sans'" stroke-linecap="butt">
      <line clip-path="url(#clipPath48)" fill="none" x1="828" x2="828" y1="60" y2="1000" />
      <rect x="819" y="910" clip-path="url(#clipPath49)" fill="rgb(204,242,166)" width="20" height="40" stroke="none" />
    </g>
    <g stroke-linecap="butt" font-size="19" fill="rgb(209,209,209)" font-family="'Lucida Sans'" stroke="rgb(209,209,209)" stroke-width="0.1">
      <rect x="819" y="910" clip-path="url(#clipPath49)" fill="none" width="19" height="39" />
      <text x="840" y="929" clip-path="url(#clipPath50)" fill="rgb(77,137,20)" stroke="none" xml:space="preserve">tsi09</text>
      <rect x="62" y="10" clip-path="url(#clipPath51)" fill="rgb(238,201,142)" width="70" height="30" stroke="none" />
      <rect x="62" y="10" clip-path="url(#clipPath51)" fill="none" width="69" height="29" stroke="black" />
      <text x="65" y="33" clip-path="url(#clipPath52)" fill="black" stroke="none" xml:space="preserve">System</text>
    </g>
    <g stroke-width="1.1" font-size="19" stroke-dasharray="10,10" font-family="'Lucida Sans'" stroke-linecap="butt">
      <line clip-path="url(#clipPath53)" fill="none" x1="96" x2="96" y1="40" y2="1000" />
    </g>
    <g stroke-linecap="butt" font-size="19" fill="rgb(136,136,136)" font-family="'Lucida Sans'" stroke="rgb(136,136,136)" stroke-width="2.1">
      <line clip-path="url(#clipPath54)" fill="none" x1="307" x2="97" y1="90" y2="90" />
      <text x="78" y="83" clip-path="url(#clipPath55)" fill="black" stroke="none" xml:space="preserve">oeCreateSystemAndEnvironment(4)</text>
      <line clip-path="url(#clipPath56)" fill="none" x1="104" x2="97" y1="87" y2="90" />
      <line clip-path="url(#clipPath56)" fill="none" x1="97" x2="104" y1="90" y2="93" />
      <line clip-path="url(#clipPath54)" fill="none" x1="418" x2="97" y1="150" y2="150" />
      <text x="80" y="146" clip-path="url(#clipPath57)" fill="black" stroke="none" xml:space="preserve">oeSetClock(2017:11:24 - 03:20:00)</text>
      <line clip-path="url(#clipPath58)" fill="none" x1="104" x2="97" y1="147" y2="150" />
      <line clip-path="url(#clipPath58)" fill="none" x1="97" x2="104" y1="150" y2="153" />
      <line clip-path="url(#clipPath54)" fill="none" x1="540" x2="97" y1="210" y2="210" />
      <text x="74" y="201" clip-path="url(#clipPath59)" fill="black" stroke="none" xml:space="preserve">oeLogin(icrashadmin,7WXC1359)</text>
      <line clip-path="url(#clipPath60)" fill="none" x1="104" x2="97" y1="207" y2="210" />
      <line clip-path="url(#clipPath60)" fill="none" x1="97" x2="104" y1="210" y2="213" />
      <line clip-path="url(#clipPath54)" fill="none" x1="540" x2="97" y1="330" y2="330" />
      <text x="72" y="322" clip-path="url(#clipPath61)" fill="black" stroke="none" xml:space="preserve">oeAddCoordinator(1,steve,pwdMessirExcalibur2017)</text>
      <line clip-path="url(#clipPath62)" fill="none" x1="104" x2="97" y1="327" y2="330" />
      <line clip-path="url(#clipPath62)" fill="none" x1="97" x2="104" y1="330" y2="333" />
      <line clip-path="url(#clipPath54)" fill="none" x1="540" x2="97" y1="450" y2="450" />
      <text x="100" y="441" clip-path="url(#clipPath63)" fill="black" stroke="none" xml:space="preserve">oeLogout()</text>
      <line clip-path="url(#clipPath64)" fill="none" x1="104" x2="97" y1="447" y2="450" />
      <line clip-path="url(#clipPath64)" fill="none" x1="97" x2="104" y1="450" y2="453" />
      <line clip-path="url(#clipPath54)" fill="none" x1="418" x2="97" y1="556" y2="556" />
      <text x="76" y="544" clip-path="url(#clipPath65)" fill="black" stroke="none" xml:space="preserve">oeSetClock(2017:11:26 - 10:15:00)</text>
      <line clip-path="url(#clipPath66)" fill="none" x1="104" x2="97" y1="553" y2="556" />
      <line clip-path="url(#clipPath66)" fill="none" x1="97" x2="104" y1="556" y2="559" />
      <line clip-path="url(#clipPath54)" fill="none" x1="679" x2="97" y1="651" y2="651" />
      <text x="143" y="614" clip-path="url(#clipPath67)" fill="black" stroke="none" xml:space="preserve">oeAlert(witness,2017:11:26,10:10:16,</text>
      <text x="102" y="636" clip-path="url(#clipPath67)" fill="black" stroke="none" xml:space="preserve">+3524666445252,49.627675:6.159590,3 cars </text>
      <text x="202" y="658" clip-path="url(#clipPath67)" fill="black" stroke="none" xml:space="preserve">involved in an accident.)</text>
      <line clip-path="url(#clipPath68)" fill="none" x1="104" x2="97" y1="648" y2="651" />
      <line clip-path="url(#clipPath68)" fill="none" x1="97" x2="104" y1="651" y2="654" />
      <line clip-path="url(#clipPath54)" fill="none" x1="418" x2="97" y1="790" y2="790" />
      <text x="88" y="783" clip-path="url(#clipPath69)" fill="black" stroke="none" xml:space="preserve">oeSollicitateCrisisHandling()</text>
      <line clip-path="url(#clipPath70)" fill="none" x1="104" x2="97" y1="787" y2="790" />
      <line clip-path="url(#clipPath70)" fill="none" x1="97" x2="104" y1="790" y2="793" />
      <line clip-path="url(#clipPath54)" fill="none" x1="540" x2="97" y1="256" y2="256" stroke-dasharray="5,5" />
      <text x="68" y="249" clip-path="url(#clipPath71)" fill="black" stroke-dasharray="5,5" stroke="none" xml:space="preserve">ieMessage(You are logged ! Welcome ...)</text>
      <line clip-path="url(#clipPath72)" fill="none" x1="533" x2="540" y1="259" y2="256" />
      <line clip-path="url(#clipPath72)" fill="none" x1="540" x2="533" y1="256" y2="253" />
      <line clip-path="url(#clipPath54)" fill="none" x1="540" x2="97" y1="375" y2="375" stroke-dasharray="5,5" />
      <text x="88" y="367" clip-path="url(#clipPath73)" fill="black" stroke-dasharray="5,5" stroke="none" xml:space="preserve">ieCoordinatorAdded()</text>
      <line clip-path="url(#clipPath74)" fill="none" x1="533" x2="540" y1="378" y2="375" />
      <line clip-path="url(#clipPath74)" fill="none" x1="540" x2="533" y1="375" y2="372" />
      <line clip-path="url(#clipPath54)" fill="none" x1="540" x2="97" y1="500" y2="500" stroke-dasharray="5,5" />
      <text x="69" y="491" clip-path="url(#clipPath75)" fill="black" stroke-dasharray="5,5" stroke="none" xml:space="preserve">ieMessage(You are logged out ! Good Bye ...)</text>
      <line clip-path="url(#clipPath76)" fill="none" x1="533" x2="540" y1="503" y2="500" />
      <line clip-path="url(#clipPath76)" fill="none" x1="540" x2="533" y1="500" y2="497" />
      <line clip-path="url(#clipPath54)" fill="none" x1="679" x2="97" y1="730" y2="730" stroke-dasharray="5,5" />
      <text x="24" y="719" clip-path="url(#clipPath77)" fill="black" stroke-dasharray="5,5" stroke="none" xml:space="preserve">ieSmsSend(+3524666445252,Your alert has been registered. We will handle it and keep you informed)</text>
      <line clip-path="url(#clipPath78)" fill="none" x1="672" x2="679" y1="733" y2="730" />
      <line clip-path="url(#clipPath78)" fill="none" x1="679" x2="672" y1="730" y2="727" />
      <line clip-path="url(#clipPath54)" fill="none" x1="540" x2="97" y1="850" y2="850" stroke-dasharray="5,5" />
      <text x="28" y="845" clip-path="url(#clipPath79)" fill="black" stroke-dasharray="5,5" stroke="none" xml:space="preserve">ieMessage(There are alerts pending since more than the defined delay. Please REACT !)</text>
      <line clip-path="url(#clipPath80)" fill="none" x1="533" x2="540" y1="853" y2="850" />
      <line clip-path="url(#clipPath80)" fill="none" x1="540" x2="533" y1="850" y2="847" />
      <line clip-path="url(#clipPath54)" fill="none" x1="819" x2="97" y1="910" y2="910" stroke-dasharray="5,5" />
      <text x="27" y="900" clip-path="url(#clipPath81)" fill="black" stroke-dasharray="5,5" stroke="none" xml:space="preserve">ieMessage(There are alerts pending since more than the defined delay. Please REACT !)</text>
      <line clip-path="url(#clipPath82)" fill="none" x1="812" x2="819" y1="913" y2="910" />
      <line clip-path="url(#clipPath82)" fill="none" x1="819" x2="812" y1="910" y2="907" />
    </g>
  </g>
</svg>

