<?xml version="1.0" encoding="UTF-8"?>
<svg xmlns="http://www.w3.org/2000/svg" xmlns:xlink="http://www.w3.org/1999/xlink" stroke-dasharray="none" shape-rendering="auto" font-family="'Dialog'" width="836" text-rendering="auto" fill-opacity="1" contentScriptType="text/ecmascript" color-interpolation="auto" color-rendering="auto" preserveAspectRatio="xMidYMid meet" font-size="12" viewBox="0 0 836 1311" fill="black" stroke="black" image-rendering="auto" stroke-miterlimit="10" zoomAndPan="magnify" version="1.0" stroke-linecap="square" stroke-linejoin="miter" contentStyleType="text/css" font-style="normal" height="1311" stroke-width="1" stroke-dashoffset="0" font-weight="normal" stroke-opacity="1">
  <!--Generated by the Batik Graphics2D SVG Generator-->
  <defs id="genericDefs" />
  <g>
    <defs id="defs1">
      <clipPath clipPathUnits="userSpaceOnUse" id="clipPath1">
        <path d="M345 9 L464 9 L464 61 L345 61 L345 9 Z" />
      </clipPath>
      <clipPath clipPathUnits="userSpaceOnUse" id="clipPath2">
        <path d="M345 9 L468 9 L468 61 L345 61 L345 9 Z" />
      </clipPath>
      <clipPath clipPathUnits="userSpaceOnUse" id="clipPath3">
        <path d="M345 9 L466 9 L466 61 L345 61 L345 9 Z" />
      </clipPath>
      <clipPath clipPathUnits="userSpaceOnUse" id="clipPath4">
        <path d="M398 59 L410 59 L410 1302 L398 1302 L398 59 Z" />
      </clipPath>
      <clipPath clipPathUnits="userSpaceOnUse" id="clipPath5">
        <path d="M393 89 L415 89 L415 131 L393 131 L393 89 Z" />
      </clipPath>
      <clipPath clipPathUnits="userSpaceOnUse" id="clipPath6">
        <path d="M414 89 L461 89 L461 113 L414 113 L414 89 Z" />
      </clipPath>
      <clipPath clipPathUnits="userSpaceOnUse" id="clipPath7">
        <path d="M393 209 L415 209 L415 251 L393 251 L393 209 Z" />
      </clipPath>
      <clipPath clipPathUnits="userSpaceOnUse" id="clipPath8">
        <path d="M414 209 L460 209 L460 233 L414 233 L414 209 Z" />
      </clipPath>
      <clipPath clipPathUnits="userSpaceOnUse" id="clipPath9">
        <path d="M393 329 L415 329 L415 371 L393 371 L393 329 Z" />
      </clipPath>
      <clipPath clipPathUnits="userSpaceOnUse" id="clipPath10">
        <path d="M414 329 L461 329 L461 353 L414 353 L414 329 Z" />
      </clipPath>
      <clipPath clipPathUnits="userSpaceOnUse" id="clipPath11">
        <path d="M393 570 L415 570 L415 612 L393 612 L393 570 Z" />
      </clipPath>
      <clipPath clipPathUnits="userSpaceOnUse" id="clipPath12">
        <path d="M414 570 L461 570 L461 594 L414 594 L414 570 Z" />
      </clipPath>
      <clipPath clipPathUnits="userSpaceOnUse" id="clipPath13">
        <path d="M393 910 L415 910 L415 952 L393 952 L393 910 Z" />
      </clipPath>
      <clipPath clipPathUnits="userSpaceOnUse" id="clipPath14">
        <path d="M414 910 L461 910 L461 934 L414 934 L414 910 Z" />
      </clipPath>
      <clipPath clipPathUnits="userSpaceOnUse" id="clipPath15">
        <path d="M393 1030 L415 1030 L415 1072 L393 1072 L393 1030 Z" />
      </clipPath>
      <clipPath clipPathUnits="userSpaceOnUse" id="clipPath16">
        <path d="M414 1030 L461 1030 L461 1054 L414 1054 L414 1030 Z" />
      </clipPath>
      <clipPath clipPathUnits="userSpaceOnUse" id="clipPath17">
        <path d="M393 1150 L415 1150 L415 1192 L393 1192 L393 1150 Z" />
      </clipPath>
      <clipPath clipPathUnits="userSpaceOnUse" id="clipPath18">
        <path d="M414 1150 L461 1150 L461 1174 L414 1174 L414 1150 Z" />
      </clipPath>
      <clipPath clipPathUnits="userSpaceOnUse" id="clipPath19">
        <path d="M393 139 L415 139 L415 181 L393 181 L393 139 Z" />
      </clipPath>
      <clipPath clipPathUnits="userSpaceOnUse" id="clipPath20">
        <path d="M414 139 L461 139 L461 163 L414 163 L414 139 Z" />
      </clipPath>
      <clipPath clipPathUnits="userSpaceOnUse" id="clipPath21">
        <path d="M393 257 L415 257 L415 299 L393 299 L393 257 Z" />
      </clipPath>
      <clipPath clipPathUnits="userSpaceOnUse" id="clipPath22">
        <path d="M414 257 L460 257 L460 281 L414 281 L414 257 Z" />
      </clipPath>
      <clipPath clipPathUnits="userSpaceOnUse" id="clipPath23">
        <path d="M393 443 L415 443 L415 485 L393 485 L393 443 Z" />
      </clipPath>
      <clipPath clipPathUnits="userSpaceOnUse" id="clipPath24">
        <path d="M414 443 L461 443 L461 467 L414 467 L414 443 Z" />
      </clipPath>
      <clipPath clipPathUnits="userSpaceOnUse" id="clipPath25">
        <path d="M393 630 L415 630 L415 672 L393 672 L393 630 Z" />
      </clipPath>
      <clipPath clipPathUnits="userSpaceOnUse" id="clipPath26">
        <path d="M414 630 L461 630 L461 654 L414 654 L414 630 Z" />
      </clipPath>
      <clipPath clipPathUnits="userSpaceOnUse" id="clipPath27">
        <path d="M393 970 L415 970 L415 1012 L393 1012 L393 970 Z" />
      </clipPath>
      <clipPath clipPathUnits="userSpaceOnUse" id="clipPath28">
        <path d="M414 970 L461 970 L461 994 L414 994 L414 970 Z" />
      </clipPath>
      <clipPath clipPathUnits="userSpaceOnUse" id="clipPath29">
        <path d="M393 1090 L415 1090 L415 1132 L393 1132 L393 1090 Z" />
      </clipPath>
      <clipPath clipPathUnits="userSpaceOnUse" id="clipPath30">
        <path d="M414 1090 L461 1090 L461 1114 L414 1114 L414 1090 Z" />
      </clipPath>
      <clipPath clipPathUnits="userSpaceOnUse" id="clipPath31">
        <path d="M393 1210 L415 1210 L415 1252 L393 1252 L393 1210 Z" />
      </clipPath>
      <clipPath clipPathUnits="userSpaceOnUse" id="clipPath32">
        <path d="M414 1210 L461 1210 L461 1234 L414 1234 L414 1210 Z" />
      </clipPath>
      <clipPath clipPathUnits="userSpaceOnUse" id="clipPath33">
        <path d="M472 9 L602 9 L602 61 L472 61 L472 9 Z" />
      </clipPath>
      <clipPath clipPathUnits="userSpaceOnUse" id="clipPath34">
        <path d="M472 9 L606 9 L606 61 L472 61 L472 9 Z" />
      </clipPath>
      <clipPath clipPathUnits="userSpaceOnUse" id="clipPath35">
        <path d="M472 9 L604 9 L604 61 L472 61 L472 9 Z" />
      </clipPath>
      <clipPath clipPathUnits="userSpaceOnUse" id="clipPath36">
        <path d="M472 9 L607 9 L607 61 L472 61 L472 9 Z" />
      </clipPath>
      <clipPath clipPathUnits="userSpaceOnUse" id="clipPath37">
        <path d="M531 59 L543 59 L543 1302 L531 1302 L531 59 Z" />
      </clipPath>
      <clipPath clipPathUnits="userSpaceOnUse" id="clipPath38">
        <path d="M526 714 L548 714 L548 756 L526 756 L526 714 Z" />
      </clipPath>
      <clipPath clipPathUnits="userSpaceOnUse" id="clipPath39">
        <path d="M547 714 L594 714 L594 738 L547 738 L547 714 Z" />
      </clipPath>
      <clipPath clipPathUnits="userSpaceOnUse" id="clipPath40">
        <path d="M526 398 L548 398 L548 440 L526 440 L526 398 Z" />
      </clipPath>
      <clipPath clipPathUnits="userSpaceOnUse" id="clipPath41">
        <path d="M547 398 L594 398 L594 422 L547 422 L547 398 Z" />
      </clipPath>
      <clipPath clipPathUnits="userSpaceOnUse" id="clipPath42">
        <path d="M526 790 L548 790 L548 832 L526 832 L526 790 Z" />
      </clipPath>
      <clipPath clipPathUnits="userSpaceOnUse" id="clipPath43">
        <path d="M547 790 L594 790 L594 814 L547 814 L547 790 Z" />
      </clipPath>
      <clipPath clipPathUnits="userSpaceOnUse" id="clipPath44">
        <path d="M610 9 L729 9 L729 61 L610 61 L610 9 Z" />
      </clipPath>
      <clipPath clipPathUnits="userSpaceOnUse" id="clipPath45">
        <path d="M610 9 L733 9 L733 61 L610 61 L610 9 Z" />
      </clipPath>
      <clipPath clipPathUnits="userSpaceOnUse" id="clipPath46">
        <path d="M610 9 L732 9 L732 61 L610 61 L610 9 Z" />
      </clipPath>
      <clipPath clipPathUnits="userSpaceOnUse" id="clipPath47">
        <path d="M663 59 L675 59 L675 1302 L663 1302 L663 59 Z" />
      </clipPath>
      <clipPath clipPathUnits="userSpaceOnUse" id="clipPath48">
        <path d="M658 518 L680 518 L680 560 L658 560 L658 518 Z" />
      </clipPath>
      <clipPath clipPathUnits="userSpaceOnUse" id="clipPath49">
        <path d="M679 518 L726 518 L726 542 L679 542 L679 518 Z" />
      </clipPath>
      <clipPath clipPathUnits="userSpaceOnUse" id="clipPath50">
        <path d="M658 850 L680 850 L680 892 L658 892 L658 850 Z" />
      </clipPath>
      <clipPath clipPathUnits="userSpaceOnUse" id="clipPath51">
        <path d="M679 850 L726 850 L726 874 L679 874 L679 850 Z" />
      </clipPath>
      <clipPath clipPathUnits="userSpaceOnUse" id="clipPath52">
        <path d="M59 9 L131 9 L131 41 L59 41 L59 9 Z" />
      </clipPath>
      <clipPath clipPathUnits="userSpaceOnUse" id="clipPath53">
        <path d="M59 9 L136 9 L136 41 L59 41 L59 9 Z" />
      </clipPath>
      <clipPath clipPathUnits="userSpaceOnUse" id="clipPath54">
        <path d="M89 39 L101 39 L101 1302 L89 1302 L89 39 Z" />
      </clipPath>
      <clipPath clipPathUnits="userSpaceOnUse" id="clipPath55">
        <path d="M-1 -1 L837 -1 L837 1312 L-1 1312 L-1 -1 Z" />
      </clipPath>
      <clipPath clipPathUnits="userSpaceOnUse" id="clipPath56">
        <path d="M71 68 L421 68 L421 92 L71 92 L71 68 Z" />
      </clipPath>
      <clipPath clipPathUnits="userSpaceOnUse" id="clipPath57">
        <path d="M93 85 L105 85 L105 96 L93 96 L93 85 Z" />
      </clipPath>
      <clipPath clipPathUnits="userSpaceOnUse" id="clipPath58">
        <path d="M82 184 L298 184 L298 208 L82 208 L82 184 Z" />
      </clipPath>
      <clipPath clipPathUnits="userSpaceOnUse" id="clipPath59">
        <path d="M93 205 L105 205 L105 216 L93 216 L93 205 Z" />
      </clipPath>
      <clipPath clipPathUnits="userSpaceOnUse" id="clipPath60">
        <path d="M85 303 L278 303 L278 327 L85 327 L85 303 Z" />
      </clipPath>
      <clipPath clipPathUnits="userSpaceOnUse" id="clipPath61">
        <path d="M93 325 L105 325 L105 336 L93 336 L93 325 Z" />
      </clipPath>
      <clipPath clipPathUnits="userSpaceOnUse" id="clipPath62">
        <path d="M75 490 L381 490 L381 514 L75 514 L75 490 Z" />
      </clipPath>
      <clipPath clipPathUnits="userSpaceOnUse" id="clipPath63">
        <path d="M93 514 L105 514 L105 525 L93 525 L93 514 Z" />
      </clipPath>
      <clipPath clipPathUnits="userSpaceOnUse" id="clipPath64">
        <path d="M91 544 L248 544 L248 568 L91 568 L91 544 Z" />
      </clipPath>
      <clipPath clipPathUnits="userSpaceOnUse" id="clipPath65">
        <path d="M93 566 L105 566 L105 577 L93 577 L93 566 Z" />
      </clipPath>
      <clipPath clipPathUnits="userSpaceOnUse" id="clipPath66">
        <path d="M91 663 L503 663 L503 726 L91 726 L91 663 Z" />
      </clipPath>
      <clipPath clipPathUnits="userSpaceOnUse" id="clipPath67">
        <path d="M93 710 L105 710 L105 721 L93 721 L93 710 Z" />
      </clipPath>
      <clipPath clipPathUnits="userSpaceOnUse" id="clipPath68">
        <path d="M70 822 L376 822 L376 846 L70 846 L70 822 Z" />
      </clipPath>
      <clipPath clipPathUnits="userSpaceOnUse" id="clipPath69">
        <path d="M93 846 L105 846 L105 857 L93 857 L93 846 Z" />
      </clipPath>
      <clipPath clipPathUnits="userSpaceOnUse" id="clipPath70">
        <path d="M78 884 L320 884 L320 908 L78 908 L78 884 Z" />
      </clipPath>
      <clipPath clipPathUnits="userSpaceOnUse" id="clipPath71">
        <path d="M93 906 L105 906 L105 917 L93 917 L93 906 Z" />
      </clipPath>
      <clipPath clipPathUnits="userSpaceOnUse" id="clipPath72">
        <path d="M23 1007 L805 1007 L805 1031 L23 1031 L23 1007 Z" />
      </clipPath>
      <clipPath clipPathUnits="userSpaceOnUse" id="clipPath73">
        <path d="M93 1026 L105 1026 L105 1037 L93 1037 L93 1026 Z" />
      </clipPath>
      <clipPath clipPathUnits="userSpaceOnUse" id="clipPath74">
        <path d="M82 1124 L231 1124 L231 1148 L82 1148 L82 1124 Z" />
      </clipPath>
      <clipPath clipPathUnits="userSpaceOnUse" id="clipPath75">
        <path d="M93 1146 L105 1146 L105 1157 L93 1157 L93 1146 Z" />
      </clipPath>
      <clipPath clipPathUnits="userSpaceOnUse" id="clipPath76">
        <path d="M60 113 L416 113 L416 137 L60 137 L60 113 Z" />
      </clipPath>
      <clipPath clipPathUnits="userSpaceOnUse" id="clipPath77">
        <path d="M385 135 L397 135 L397 146 L385 146 L385 135 Z" />
      </clipPath>
      <clipPath clipPathUnits="userSpaceOnUse" id="clipPath78">
        <path d="M66 233 L387 233 L387 257 L66 257 L66 233 Z" />
      </clipPath>
      <clipPath clipPathUnits="userSpaceOnUse" id="clipPath79">
        <path d="M385 253 L397 253 L397 264 L385 264 L385 253 Z" />
      </clipPath>
      <clipPath clipPathUnits="userSpaceOnUse" id="clipPath80">
        <path d="M24 372 L775 372 L775 396 L24 396 L24 372 Z" />
      </clipPath>
      <clipPath clipPathUnits="userSpaceOnUse" id="clipPath81">
        <path d="M518 394 L530 394 L530 405 L518 405 L518 394 Z" />
      </clipPath>
      <clipPath clipPathUnits="userSpaceOnUse" id="clipPath82">
        <path d="M53 413 L557 413 L557 437 L53 437 L53 413 Z" />
      </clipPath>
      <clipPath clipPathUnits="userSpaceOnUse" id="clipPath83">
        <path d="M385 439 L397 439 L397 450 L385 450 L385 439 Z" />
      </clipPath>
      <clipPath clipPathUnits="userSpaceOnUse" id="clipPath84">
        <path d="M60 608 L463 608 L463 632 L60 632 L60 608 Z" />
      </clipPath>
      <clipPath clipPathUnits="userSpaceOnUse" id="clipPath85">
        <path d="M385 626 L397 626 L397 637 L385 637 L385 626 Z" />
      </clipPath>
      <clipPath clipPathUnits="userSpaceOnUse" id="clipPath86">
        <path d="M518 786 L530 786 L530 797 L518 797 L518 786 Z" />
      </clipPath>
      <clipPath clipPathUnits="userSpaceOnUse" id="clipPath87">
        <path d="M58 942 L474 942 L474 966 L58 966 L58 942 Z" />
      </clipPath>
      <clipPath clipPathUnits="userSpaceOnUse" id="clipPath88">
        <path d="M385 966 L397 966 L397 977 L385 977 L385 966 Z" />
      </clipPath>
      <clipPath clipPathUnits="userSpaceOnUse" id="clipPath89">
        <path d="M54 1065 L499 1065 L499 1089 L54 1089 L54 1065 Z" />
      </clipPath>
      <clipPath clipPathUnits="userSpaceOnUse" id="clipPath90">
        <path d="M385 1086 L397 1086 L397 1097 L385 1097 L385 1086 Z" />
      </clipPath>
      <clipPath clipPathUnits="userSpaceOnUse" id="clipPath91">
        <path d="M64 1187 L388 1187 L388 1211 L64 1211 L64 1187 Z" />
      </clipPath>
      <clipPath clipPathUnits="userSpaceOnUse" id="clipPath92">
        <path d="M385 1206 L397 1206 L397 1217 L385 1217 L385 1206 Z" />
      </clipPath>
    </defs>
    <g font-size="19" fill="rgb(255,245,181)" font-family="'Lucida Sans'" stroke-linejoin="round" stroke="rgb(255,245,181)" stroke-width="0" stroke-miterlimit="0">
      <rect x="346" y="10" clip-path="url(#clipPath1)" width="117" height="50" stroke="none" />
    </g>
    <g stroke-width="0.1" font-size="19" font-family="'Lucida Sans'" stroke-linecap="butt">
      <rect x="346" y="10" clip-path="url(#clipPath1)" fill="none" width="116" height="49" />
      <text xml:space="preserve" x="381" y="21" clip-path="url(#clipPath2)" stroke="none">steve</text>
      <text xml:space="preserve" x="399" y="43" clip-path="url(#clipPath3)" stroke="none">: </text>
      <text xml:space="preserve" x="351" y="65" clip-path="url(#clipPath2)" stroke="none">actCoordin...</text>
      <line clip-path="url(#clipPath4)" fill="none" x1="403" x2="403" y1="60" y2="1301" stroke-dasharray="10,10" stroke-width="1.1" />
    </g>
    <g stroke-linecap="butt" font-size="19" fill="rgb(77,137,20)" font-family="'Lucida Sans'" stroke-dasharray="10,10" stroke="rgb(77,137,20)" stroke-width="1.1">
      <rect x="394" y="90" clip-path="url(#clipPath5)" width="20" height="40" stroke="none" />
      <rect x="395" y="91" clip-path="url(#clipPath5)" fill="none" width="18" stroke-dasharray="none" height="38" stroke-width="2.1" />
      <text x="415" y="109" clip-path="url(#clipPath6)" stroke-dasharray="none" stroke="none" stroke-width="2.1" xml:space="preserve">tsi10</text>
      <rect x="394" y="210" clip-path="url(#clipPath7)" width="20" stroke-dasharray="none" height="40" stroke="none" stroke-width="2.1" />
      <rect x="395" y="211" clip-path="url(#clipPath7)" fill="none" width="18" stroke-dasharray="none" height="38" stroke-width="2.1" />
      <text x="415" y="229" clip-path="url(#clipPath8)" stroke-dasharray="none" stroke="none" stroke-width="2.1" xml:space="preserve">tsi11</text>
      <rect x="394" y="330" clip-path="url(#clipPath9)" width="20" stroke-dasharray="none" height="40" stroke="none" stroke-width="2.1" />
      <rect x="395" y="331" clip-path="url(#clipPath9)" fill="none" width="18" stroke-dasharray="none" height="38" stroke-width="2.1" />
      <text x="415" y="349" clip-path="url(#clipPath10)" stroke-dasharray="none" stroke="none" stroke-width="2.1" xml:space="preserve">tsi12</text>
      <rect x="394" y="571" clip-path="url(#clipPath11)" width="20" stroke-dasharray="none" height="40" stroke="none" stroke-width="2.1" />
      <rect x="395" y="572" clip-path="url(#clipPath11)" fill="none" width="18" stroke-dasharray="none" height="38" stroke-width="2.1" />
      <text x="415" y="590" clip-path="url(#clipPath12)" stroke-dasharray="none" stroke="none" stroke-width="2.1" xml:space="preserve">tsi14</text>
      <rect x="394" y="911" clip-path="url(#clipPath13)" width="20" stroke-dasharray="none" height="40" stroke="none" stroke-width="2.1" />
      <rect x="395" y="912" clip-path="url(#clipPath13)" fill="none" width="18" stroke-dasharray="none" height="38" stroke-width="2.1" />
      <text x="415" y="930" clip-path="url(#clipPath14)" stroke-dasharray="none" stroke="none" stroke-width="2.1" xml:space="preserve">tsi17</text>
      <rect x="394" y="1031" clip-path="url(#clipPath15)" width="20" stroke-dasharray="none" height="40" stroke="none" stroke-width="2.1" />
      <rect x="395" y="1032" clip-path="url(#clipPath15)" fill="none" width="18" stroke-dasharray="none" height="38" stroke-width="2.1" />
      <text x="415" y="1050" clip-path="url(#clipPath16)" stroke-dasharray="none" stroke="none" stroke-width="2.1" xml:space="preserve">tsi18</text>
      <rect x="394" y="1151" clip-path="url(#clipPath17)" width="20" stroke-dasharray="none" height="40" stroke="none" stroke-width="2.1" />
      <rect x="395" y="1152" clip-path="url(#clipPath17)" fill="none" width="18" stroke-dasharray="none" height="38" stroke-width="2.1" />
      <text x="415" y="1170" clip-path="url(#clipPath18)" stroke-dasharray="none" stroke="none" stroke-width="2.1" xml:space="preserve">tsi19</text>
    </g>
    <g stroke-linecap="butt" font-size="19" fill="rgb(204,242,166)" font-family="'Lucida Sans'" stroke="rgb(204,242,166)" stroke-width="2.1">
      <rect x="394" y="140" clip-path="url(#clipPath19)" width="20" height="40" stroke="none" />
      <rect x="394" y="140" clip-path="url(#clipPath19)" fill="none" width="19" height="39" stroke="rgb(209,209,209)" stroke-width="0.1" />
      <text x="415" y="159" clip-path="url(#clipPath20)" fill="rgb(77,137,20)" stroke="none" stroke-width="0.1" xml:space="preserve">tsi10</text>
      <rect x="394" y="258" clip-path="url(#clipPath21)" width="20" height="40" stroke="none" stroke-width="0.1" />
      <rect x="394" y="258" clip-path="url(#clipPath21)" fill="none" width="19" height="39" stroke="rgb(209,209,209)" stroke-width="0.1" />
      <text x="415" y="277" clip-path="url(#clipPath22)" fill="rgb(77,137,20)" stroke="none" stroke-width="0.1" xml:space="preserve">tsi11</text>
      <rect x="394" y="444" clip-path="url(#clipPath23)" width="20" height="40" stroke="none" stroke-width="0.1" />
      <rect x="394" y="444" clip-path="url(#clipPath23)" fill="none" width="19" height="39" stroke="rgb(209,209,209)" stroke-width="0.1" />
      <text x="415" y="463" clip-path="url(#clipPath24)" fill="rgb(77,137,20)" stroke="none" stroke-width="0.1" xml:space="preserve">tsi12</text>
      <rect x="394" y="631" clip-path="url(#clipPath25)" width="20" height="40" stroke="none" stroke-width="0.1" />
      <rect x="394" y="631" clip-path="url(#clipPath25)" fill="none" width="19" height="39" stroke="rgb(209,209,209)" stroke-width="0.1" />
      <text x="415" y="650" clip-path="url(#clipPath26)" fill="rgb(77,137,20)" stroke="none" stroke-width="0.1" xml:space="preserve">tsi14</text>
      <rect x="394" y="971" clip-path="url(#clipPath27)" width="20" height="40" stroke="none" stroke-width="0.1" />
      <rect x="394" y="971" clip-path="url(#clipPath27)" fill="none" width="19" height="39" stroke="rgb(209,209,209)" stroke-width="0.1" />
      <text x="415" y="990" clip-path="url(#clipPath28)" fill="rgb(77,137,20)" stroke="none" stroke-width="0.1" xml:space="preserve">tsi17</text>
      <rect x="394" y="1091" clip-path="url(#clipPath29)" width="20" height="40" stroke="none" stroke-width="0.1" />
      <rect x="394" y="1091" clip-path="url(#clipPath29)" fill="none" width="19" height="39" stroke="rgb(209,209,209)" stroke-width="0.1" />
      <text x="415" y="1110" clip-path="url(#clipPath30)" fill="rgb(77,137,20)" stroke="none" stroke-width="0.1" xml:space="preserve">tsi18</text>
      <rect x="394" y="1211" clip-path="url(#clipPath31)" width="20" height="40" stroke="none" stroke-width="0.1" />
      <rect x="394" y="1211" clip-path="url(#clipPath31)" fill="none" width="19" height="39" stroke="rgb(209,209,209)" stroke-width="0.1" />
      <text x="415" y="1230" clip-path="url(#clipPath32)" fill="rgb(77,137,20)" stroke="none" stroke-width="0.1" xml:space="preserve">tsi19</text>
      <rect x="473" y="10" clip-path="url(#clipPath33)" fill="rgb(255,245,181)" width="128" height="50" stroke="none" stroke-width="0.1" />
      <rect x="473" y="10" clip-path="url(#clipPath33)" fill="none" width="127" height="49" stroke="black" stroke-width="0.1" />
      <text x="513" y="21" clip-path="url(#clipPath34)" fill="black" stroke="none" stroke-width="0.1" xml:space="preserve">tango</text>
      <text x="532" y="43" clip-path="url(#clipPath35)" fill="black" stroke="none" stroke-width="0.1" xml:space="preserve">: </text>
      <text x="476" y="65" clip-path="url(#clipPath36)" fill="black" stroke="none" stroke-width="0.1" xml:space="preserve">actComCom...</text>
    </g>
    <g stroke-width="1.1" font-size="19" stroke-dasharray="10,10" font-family="'Lucida Sans'" stroke-linecap="butt">
      <line clip-path="url(#clipPath37)" fill="none" x1="536" x2="536" y1="60" y2="1301" />
      <rect x="527" y="715" clip-path="url(#clipPath38)" fill="rgb(77,137,20)" width="20" height="40" stroke="none" />
    </g>
    <g stroke-linecap="butt" font-size="19" fill="rgb(77,137,20)" font-family="'Lucida Sans'" stroke="rgb(77,137,20)" stroke-width="2.1">
      <rect x="528" y="716" clip-path="url(#clipPath38)" fill="none" width="18" height="38" />
      <text xml:space="preserve" x="548" y="734" clip-path="url(#clipPath39)" stroke="none">tsi15</text>
      <rect x="527" y="399" clip-path="url(#clipPath40)" fill="rgb(204,242,166)" width="20" height="40" stroke="none" />
      <rect x="527" y="399" clip-path="url(#clipPath40)" fill="none" width="19" height="39" stroke="rgb(209,209,209)" stroke-width="0.1" />
      <text x="548" y="418" clip-path="url(#clipPath41)" stroke="none" stroke-width="0.1" xml:space="preserve">tsi12</text>
      <rect x="527" y="791" clip-path="url(#clipPath42)" fill="rgb(204,242,166)" width="20" height="40" stroke="none" stroke-width="0.1" />
      <rect x="527" y="791" clip-path="url(#clipPath42)" fill="none" width="19" height="39" stroke="rgb(209,209,209)" stroke-width="0.1" />
      <text x="548" y="810" clip-path="url(#clipPath43)" stroke="none" stroke-width="0.1" xml:space="preserve">tsi15</text>
      <rect x="611" y="10" clip-path="url(#clipPath44)" fill="rgb(255,245,181)" width="117" height="50" stroke="none" stroke-width="0.1" />
      <rect x="611" y="10" clip-path="url(#clipPath44)" fill="none" width="116" height="49" stroke="black" stroke-width="0.1" />
      <text x="632" y="32" clip-path="url(#clipPath45)" fill="black" stroke="none" stroke-width="0.1" xml:space="preserve">theClock</text>
      <text x="615" y="54" clip-path="url(#clipPath46)" fill="black" stroke="none" stroke-width="0.1" xml:space="preserve">: actActivator</text>
    </g>
    <g stroke-width="1.1" font-size="19" stroke-dasharray="10,10" font-family="'Lucida Sans'" stroke-linecap="butt">
      <line clip-path="url(#clipPath47)" fill="none" x1="668" x2="668" y1="60" y2="1301" />
      <rect x="659" y="519" clip-path="url(#clipPath48)" fill="rgb(77,137,20)" width="20" height="40" stroke="none" />
    </g>
    <g stroke-linecap="butt" font-size="19" fill="rgb(77,137,20)" font-family="'Lucida Sans'" stroke="rgb(77,137,20)" stroke-width="2.1">
      <rect x="660" y="520" clip-path="url(#clipPath48)" fill="none" width="18" height="38" />
      <text xml:space="preserve" x="680" y="538" clip-path="url(#clipPath49)" stroke="none">tsi13</text>
      <rect x="659" y="851" clip-path="url(#clipPath50)" width="20" height="40" stroke="none" />
      <rect x="660" y="852" clip-path="url(#clipPath50)" fill="none" width="18" height="38" />
      <text xml:space="preserve" x="680" y="870" clip-path="url(#clipPath51)" stroke="none">tsi16</text>
      <rect x="60" y="10" clip-path="url(#clipPath52)" fill="rgb(238,201,142)" width="70" height="30" stroke="none" />
      <rect x="60" y="10" clip-path="url(#clipPath52)" fill="none" width="69" height="29" stroke="black" stroke-width="0.1" />
      <text x="63" y="33" clip-path="url(#clipPath53)" fill="black" stroke="none" stroke-width="0.1" xml:space="preserve">System</text>
    </g>
    <g stroke-width="1.1" font-size="19" stroke-dasharray="10,10" font-family="'Lucida Sans'" stroke-linecap="butt">
      <line clip-path="url(#clipPath54)" fill="none" x1="94" x2="94" y1="40" y2="1301" />
    </g>
    <g stroke-linecap="butt" font-size="19" fill="rgb(136,136,136)" font-family="'Lucida Sans'" stroke="rgb(136,136,136)" stroke-width="2.1">
      <line clip-path="url(#clipPath55)" fill="none" x1="394" x2="95" y1="90" y2="90" />
      <text x="72" y="88" clip-path="url(#clipPath56)" fill="black" stroke="none" xml:space="preserve">oeLogin(steve,pwdMessirExcalibur2017)</text>
      <line clip-path="url(#clipPath57)" fill="none" x1="102" x2="95" y1="87" y2="90" />
      <line clip-path="url(#clipPath57)" fill="none" x1="95" x2="102" y1="90" y2="93" />
      <line clip-path="url(#clipPath55)" fill="none" x1="394" x2="95" y1="210" y2="210" />
      <text x="83" y="204" clip-path="url(#clipPath58)" fill="black" stroke="none" xml:space="preserve">oeGetCrisisSet(pending)</text>
      <line clip-path="url(#clipPath59)" fill="none" x1="102" x2="95" y1="207" y2="210" />
      <line clip-path="url(#clipPath59)" fill="none" x1="95" x2="102" y1="210" y2="213" />
      <line clip-path="url(#clipPath55)" fill="none" x1="394" x2="95" y1="330" y2="330" />
      <text x="86" y="323" clip-path="url(#clipPath60)" fill="black" stroke="none" xml:space="preserve">oeSetCrisisHandler(1)</text>
      <line clip-path="url(#clipPath61)" fill="none" x1="102" x2="95" y1="327" y2="330" />
      <line clip-path="url(#clipPath61)" fill="none" x1="95" x2="102" y1="330" y2="333" />
      <line clip-path="url(#clipPath55)" fill="none" x1="659" x2="95" y1="519" y2="519" />
      <text x="76" y="510" clip-path="url(#clipPath62)" fill="black" stroke="none" xml:space="preserve">oeSetClock(2017:11:26 - 10:45:00)</text>
      <line clip-path="url(#clipPath63)" fill="none" x1="102" x2="95" y1="516" y2="519" />
      <line clip-path="url(#clipPath63)" fill="none" x1="95" x2="102" y1="519" y2="522" />
      <line clip-path="url(#clipPath55)" fill="none" x1="394" x2="95" y1="571" y2="571" />
      <text x="92" y="564" clip-path="url(#clipPath64)" fill="black" stroke="none" xml:space="preserve">oeValidateAlert(1)</text>
      <line clip-path="url(#clipPath65)" fill="none" x1="102" x2="95" y1="568" y2="571" />
      <line clip-path="url(#clipPath65)" fill="none" x1="95" x2="102" y1="571" y2="574" />
      <line clip-path="url(#clipPath55)" fill="none" x1="527" x2="95" y1="715" y2="715" />
      <text x="135" y="691" clip-path="url(#clipPath66)" fill="black" stroke="none" xml:space="preserve">oeAlert(witness,2017:11:26,10:20:00,</text>
      <text x="94" y="713" clip-path="url(#clipPath66)" fill="black" stroke="none" xml:space="preserve">+3524666445000,49.627095:6.160251,A car...</text>
      <line clip-path="url(#clipPath67)" fill="none" x1="102" x2="95" y1="712" y2="715" />
      <line clip-path="url(#clipPath67)" fill="none" x1="95" x2="102" y1="715" y2="718" />
      <line clip-path="url(#clipPath55)" fill="none" x1="659" x2="95" y1="851" y2="851" />
      <text x="71" y="842" clip-path="url(#clipPath68)" fill="black" stroke="none" xml:space="preserve">oeSetClock(2017:11:26 - 12:45:00)</text>
      <line clip-path="url(#clipPath69)" fill="none" x1="102" x2="95" y1="848" y2="851" />
      <line clip-path="url(#clipPath69)" fill="none" x1="95" x2="102" y1="851" y2="854" />
      <line clip-path="url(#clipPath55)" fill="none" x1="394" x2="95" y1="911" y2="911" />
      <text x="79" y="904" clip-path="url(#clipPath70)" fill="black" stroke="none" xml:space="preserve">oeSetCrisisStatus(1,solved)</text>
      <line clip-path="url(#clipPath71)" fill="none" x1="102" x2="95" y1="908" y2="911" />
      <line clip-path="url(#clipPath71)" fill="none" x1="95" x2="102" y1="911" y2="914" />
      <line clip-path="url(#clipPath55)" fill="none" x1="394" x2="95" y1="1031" y2="1031" />
      <text x="24" y="1027" clip-path="url(#clipPath72)" fill="black" stroke="none" xml:space="preserve">oeReportOnCrisis(1,3 victims sent to hospital, 2 cars evacuated and 4 rescue unit mobilized)</text>
      <line clip-path="url(#clipPath73)" fill="none" x1="102" x2="95" y1="1028" y2="1031" />
      <line clip-path="url(#clipPath73)" fill="none" x1="95" x2="102" y1="1031" y2="1034" />
      <line clip-path="url(#clipPath55)" fill="none" x1="394" x2="95" y1="1151" y2="1151" />
      <text x="83" y="1144" clip-path="url(#clipPath74)" fill="black" stroke="none" xml:space="preserve">oeCloseCrisis(1)</text>
      <line clip-path="url(#clipPath75)" fill="none" x1="102" x2="95" y1="1148" y2="1151" />
      <line clip-path="url(#clipPath75)" fill="none" x1="95" x2="102" y1="1151" y2="1154" />
      <line clip-path="url(#clipPath55)" fill="none" x1="394" x2="95" y1="140" y2="140" stroke-dasharray="5,5" />
      <text x="61" y="133" clip-path="url(#clipPath76)" fill="black" stroke-dasharray="5,5" stroke="none" xml:space="preserve">ieMessage(You are logged ! Welcome ...)</text>
      <line clip-path="url(#clipPath77)" fill="none" x1="387" x2="394" y1="143" y2="140" />
      <line clip-path="url(#clipPath77)" fill="none" x1="394" x2="387" y1="140" y2="137" />
      <line clip-path="url(#clipPath55)" fill="none" x1="394" x2="95" y1="258" y2="258" stroke-dasharray="5,5" />
      <text x="67" y="253" clip-path="url(#clipPath78)" fill="black" stroke-dasharray="5,5" stroke="none" xml:space="preserve">ieSendACrisis(crisis with ID 1 details)</text>
      <line clip-path="url(#clipPath79)" fill="none" x1="387" x2="394" y1="261" y2="258" />
      <line clip-path="url(#clipPath79)" fill="none" x1="394" x2="387" y1="258" y2="255" />
      <line clip-path="url(#clipPath55)" fill="none" x1="527" x2="95" y1="399" y2="399" stroke-dasharray="5,5" />
      <text x="25" y="392" clip-path="url(#clipPath80)" fill="black" stroke-dasharray="5,5" stroke="none" xml:space="preserve">ieSmsSend(+3524666445252,The handling of your alert by our services is in progress !)</text>
      <line clip-path="url(#clipPath81)" fill="none" x1="520" x2="527" y1="402" y2="399" />
      <line clip-path="url(#clipPath81)" fill="none" x1="527" x2="520" y1="399" y2="396" />
      <line clip-path="url(#clipPath55)" fill="none" x1="394" x2="95" y1="444" y2="444" stroke-dasharray="5,5" />
      <text x="54" y="433" clip-path="url(#clipPath82)" fill="black" stroke-dasharray="5,5" stroke="none" xml:space="preserve">ieMessage(You are now considered as handling the crisis !)</text>
      <line clip-path="url(#clipPath83)" fill="none" x1="387" x2="394" y1="447" y2="444" />
      <line clip-path="url(#clipPath83)" fill="none" x1="394" x2="387" y1="444" y2="441" />
      <line clip-path="url(#clipPath55)" fill="none" x1="394" x2="95" y1="631" y2="631" stroke-dasharray="5,5" />
      <text x="61" y="628" clip-path="url(#clipPath84)" fill="black" stroke-dasharray="5,5" stroke="none" xml:space="preserve">ieMessage(The Alert is now declared as valid !)</text>
      <line clip-path="url(#clipPath85)" fill="none" x1="387" x2="394" y1="634" y2="631" />
      <line clip-path="url(#clipPath85)" fill="none" x1="394" x2="387" y1="631" y2="628" />
      <line clip-path="url(#clipPath55)" fill="none" x1="527" x2="95" y1="791" y2="791" stroke-dasharray="5,5" />
      <line clip-path="url(#clipPath86)" fill="none" x1="520" x2="527" y1="794" y2="791" />
      <line clip-path="url(#clipPath86)" fill="none" x1="527" x2="520" y1="791" y2="788" />
      <line clip-path="url(#clipPath55)" fill="none" x1="394" x2="95" y1="971" y2="971" stroke-dasharray="5,5" />
      <text x="59" y="962" clip-path="url(#clipPath87)" fill="black" stroke-dasharray="5,5" stroke="none" xml:space="preserve">ieMessage(The crisis status has been updated !)</text>
      <line clip-path="url(#clipPath88)" fill="none" x1="387" x2="394" y1="974" y2="971" />
      <line clip-path="url(#clipPath88)" fill="none" x1="394" x2="387" y1="971" y2="968" />
      <line clip-path="url(#clipPath55)" fill="none" x1="394" x2="95" y1="1091" y2="1091" stroke-dasharray="5,5" />
      <text x="55" y="1085" clip-path="url(#clipPath89)" fill="black" stroke-dasharray="5,5" stroke="none" xml:space="preserve">ieMessage(The crisis comment has been updated !)</text>
      <line clip-path="url(#clipPath90)" fill="none" x1="387" x2="394" y1="1094" y2="1091" />
      <line clip-path="url(#clipPath90)" fill="none" x1="394" x2="387" y1="1091" y2="1088" />
      <line clip-path="url(#clipPath55)" fill="none" x1="394" x2="95" y1="1211" y2="1211" stroke-dasharray="5,5" />
      <text x="65" y="1207" clip-path="url(#clipPath91)" fill="black" stroke-dasharray="5,5" stroke="none" xml:space="preserve">ieMessage(The crisis is now closed !)</text>
      <line clip-path="url(#clipPath92)" fill="none" x1="387" x2="394" y1="1214" y2="1211" />
      <line clip-path="url(#clipPath92)" fill="none" x1="394" x2="387" y1="1211" y2="1208" />
    </g>
  </g>
</svg>

